<svg width="64" height="64" viewBox="0 0 64 64" fill="none" xmlns="http://www.w3.org/2000/svg">
<g clip-path="url(#clip0_33_24)">
<path d="M62.3779 41.915C63.4527 41.4589 63.99 40.5452 63.99 39.1754V24.6735C63.99 23.2638 63.3999 22.3302 62.2168 21.8726L27.9462 7.55599C27.8037 7.51465 27.6241 7.49327 27.4088 7.49327C27.1936 7.49327 26.9712 7.62868 26.7375 7.89808C26.5051 8.16891 26.3882 8.48962 26.3882 8.86307V21.9966C26.3882 23.4904 26.9784 24.4241 28.1614 24.7975L48.7341 31.9558L28.1614 39.1141C27.731 39.2809 27.329 39.6016 26.9527 40.0791C26.5764 40.5566 26.3882 41.1681 26.3882 41.915V55.0486C26.3882 55.422 26.5051 55.7441 26.7375 56.0135C26.9712 56.2844 27.1936 56.4183 27.4088 56.4183C27.6241 56.4183 27.8037 56.3984 27.9462 56.3556L62.3779 41.915Z" fill="#FF595E"/>
<path d="M1.92143 57.1653C1.47528 57.1653 1.05479 56.94 0.671362 56.4939C0.31644 56.082 0.138266 55.5888 0.138266 55.0286V41.8951C0.138266 40.9757 0.382008 40.1988 0.86379 39.5859C1.32277 39.0015 1.83876 38.5953 2.39466 38.38L20.8549 31.9359L2.41889 25.5017C1.38976 25.1752 0.136841 24.2929 0.136841 21.9767V8.84169C0.136841 8.28151 0.31644 7.78975 0.669937 7.37782C1.05479 6.93167 1.47528 6.70503 1.92143 6.70503C2.20936 6.70503 2.45452 6.73497 2.66976 6.79768L2.75386 6.82762L36.9204 21.1442C37.9311 21.5362 39.1583 22.4698 39.1583 24.6521V39.1555C39.1583 41.2722 38.0308 42.1972 37.0858 42.6006L2.71537 57.0598L2.67403 57.0726C2.46165 57.1339 2.21506 57.1653 1.92143 57.1653ZM1.97559 8.24018C1.94994 8.25871 1.90147 8.29862 1.83305 8.37844C1.72187 8.50815 1.67056 8.65212 1.67056 8.84312V21.9767C1.67056 23.4648 2.32909 23.8653 2.9021 24.0478L25.5074 31.9373L2.92205 39.8197C2.6498 39.9252 2.35475 40.1689 2.06682 40.5338C1.79885 40.8745 1.66913 41.3206 1.66913 41.8965V55.03C1.66913 55.221 1.71902 55.365 1.83163 55.4947C1.90005 55.5731 1.94709 55.613 1.97274 55.6315C2.09248 55.6287 2.1666 55.6173 2.20793 55.6087L36.4843 41.1881C36.9703 40.9814 37.6217 40.5438 37.6217 39.1555V24.6521C37.6217 23.5517 37.2283 22.9089 36.3446 22.5668L2.21221 8.26441C2.1666 8.25443 2.09105 8.24303 1.97559 8.24018Z" fill="#FF9B9E"/>
</g>
<defs>
<clipPath id="clip0_33_24">
<rect width="64" height="50.6013" fill="white" transform="translate(0 6.69933)"/>
</clipPath>
</defs>
</svg>
