<svg width="40" height="41" viewBox="0 0 40 41" fill="none" xmlns="http://www.w3.org/2000/svg">
<g clip-path="url(#clip0_10_405)">
<path d="M16.904 17.5751C17.03 17.7281 17.199 17.8491 17.414 17.9351C17.627 18.0231 17.895 18.0671 18.22 18.0671C18.544 18.0671 18.813 18.0231 19.027 17.9351C19.24 17.8491 19.409 17.7291 19.537 17.5751C19.663 17.4221 19.752 17.2391 19.802 17.0261C19.852 16.8131 19.879 16.5771 19.879 16.3181C19.879 16.0591 19.852 15.8231 19.802 15.6111C19.752 15.3981 19.663 15.2171 19.537 15.0661C19.41 14.9151 19.241 14.7981 19.027 14.7141C18.813 14.6291 18.544 14.5881 18.22 14.5881C17.895 14.5881 17.627 14.6301 17.414 14.7141C17.199 14.7981 17.03 14.9151 16.904 15.0661C16.778 15.2171 16.691 15.3971 16.643 15.6111C16.594 15.8241 16.57 16.0601 16.57 16.3181C16.57 16.5771 16.594 16.8121 16.643 17.0261C16.691 17.2391 16.779 17.4221 16.904 17.5751Z" fill="black"/>
<path d="M13.166 24.3392C13.034 24.1792 12.858 24.0562 12.637 23.9682C12.415 23.8812 12.135 23.8372 11.795 23.8372C11.458 23.8372 11.179 23.8812 10.957 23.9682C10.736 24.0562 10.559 24.1792 10.427 24.3392C10.296 24.4982 10.204 24.6892 10.151 24.9102C10.096 25.1322 10.07 25.3792 10.07 25.6482C10.07 25.9162 10.096 26.1592 10.151 26.3752C10.204 26.5902 10.296 26.7752 10.427 26.9282C10.558 27.0802 10.735 27.1992 10.957 27.2802C11.179 27.3622 11.458 27.4022 11.795 27.4022C12.135 27.4022 12.415 27.3622 12.637 27.2802C12.858 27.1992 13.034 27.0802 13.166 26.9282C13.299 26.7752 13.39 26.5912 13.443 26.3752C13.496 26.1592 13.524 25.9162 13.524 25.6482C13.524 25.3792 13.496 25.1322 13.443 24.9102C13.39 24.6892 13.299 24.4982 13.166 24.3392Z" fill="black"/>
<path d="M24.625 17.5751C24.751 17.7281 24.918 17.8491 25.133 17.9351C25.346 18.0231 25.616 18.0671 25.94 18.0671C26.265 18.0671 26.532 18.0231 26.746 17.9351C26.959 17.8491 27.13 17.7291 27.257 17.5751C27.383 17.4221 27.471 17.2391 27.522 17.0261C27.573 16.8131 27.598 16.5771 27.598 16.3181C27.598 16.0591 27.573 15.8231 27.522 15.6111C27.471 15.3981 27.383 15.2171 27.257 15.0661C27.131 14.9151 26.96 14.7981 26.746 14.7141C26.532 14.6291 26.265 14.5881 25.94 14.5881C25.616 14.5881 25.346 14.6301 25.133 14.7141C24.919 14.7981 24.751 14.9151 24.625 15.0661C24.498 15.2171 24.41 15.3971 24.363 15.6111C24.315 15.8241 24.291 16.0601 24.291 16.3181C24.291 16.5771 24.315 16.8121 24.363 17.0261C24.41 17.2391 24.498 17.4221 24.625 17.5751Z" fill="black"/>
<path d="M20 0.03125C8.955 0.03125 0 8.98525 0 20.0312C0 31.0763 8.955 40.0312 20 40.0312C31.045 40.0312 40 31.0763 40 20.0312C40 8.98525 31.045 0.03125 20 0.03125ZM30.104 18.4943V18.4853V11.7413V11.4462C30.104 11.3752 30.131 11.3123 30.188 11.2573C30.246 11.2043 30.315 11.1783 30.398 11.1783H31.665C31.749 11.1783 31.819 11.2043 31.877 11.2573C31.932 11.3113 31.961 11.3743 31.961 11.4462V12.2973V17.2083C31.961 17.6643 31.962 17.5883 31.962 17.7563H32.119H32.137C32.214 17.7623 32.282 17.7903 32.339 17.8423C32.396 17.8932 32.425 17.9533 32.425 18.0253V19.1483C32.425 19.2262 32.396 19.2902 32.339 19.3463C32.282 19.4002 32.212 19.4253 32.128 19.4253H31.619H31.611H30.442C30.346 19.4253 30.267 19.3953 30.2 19.3372C30.134 19.2773 30.102 19.2052 30.102 19.1213V18.4943H30.104ZM22.583 14.9262C22.711 14.5322 22.92 14.2022 23.204 13.9352C23.49 13.6672 23.857 13.4642 24.304 13.3263C24.752 13.1882 25.296 13.1193 25.939 13.1193C26.576 13.1193 27.119 13.1882 27.571 13.3263C28.019 13.4642 28.388 13.6672 28.674 13.9352C28.959 14.2022 29.168 14.5322 29.296 14.9262C29.425 15.3193 29.489 15.7692 29.489 16.2733C29.489 16.7833 29.425 17.2362 29.296 17.6292C29.168 18.0233 28.959 18.3533 28.674 18.6213C28.388 18.8883 28.02 19.0912 27.571 19.2292C27.119 19.3673 26.575 19.4373 25.939 19.4373C25.296 19.4373 24.751 19.3673 24.304 19.2292C23.856 19.0912 23.489 18.8883 23.204 18.6213C22.92 18.3533 22.71 18.0233 22.583 17.6292C22.453 17.2362 22.39 16.7833 22.39 16.2733C22.39 15.7692 22.453 15.3193 22.583 14.9262ZM14.864 14.9262C14.992 14.5322 15.201 14.2022 15.486 13.9352C15.772 13.6672 16.137 13.4642 16.586 13.3263C17.034 13.1882 17.579 13.1193 18.221 13.1193C18.859 13.1193 19.403 13.1882 19.853 13.3263C20.302 13.4642 20.67 13.6672 20.956 13.9352C21.242 14.2022 21.45 14.5322 21.577 14.9262C21.707 15.3193 21.771 15.7692 21.771 16.2733C21.771 16.7833 21.707 17.2362 21.577 17.6292C21.45 18.0233 21.242 18.3533 20.956 18.6213C20.67 18.8883 20.302 19.0912 19.853 19.2292C19.403 19.3673 18.859 19.4373 18.221 19.4373C17.579 19.4373 17.033 19.3673 16.586 19.2292C16.138 19.0912 15.772 18.8883 15.486 18.6213C15.201 18.3533 14.992 18.0233 14.864 17.6292C14.735 17.2362 14.669 16.7833 14.669 16.2733C14.669 15.7692 14.735 15.3193 14.864 14.9262ZM9.534 13.3763C10.011 13.1993 10.631 13.1102 11.39 13.1102C11.733 13.1102 12.03 13.1233 12.282 13.1473C12.536 13.1743 12.771 13.2172 12.988 13.2762C13.202 13.3363 13.407 13.4153 13.6 13.5133C13.793 13.6123 13.919 13.6803 14.142 13.8333C14.154 13.8393 14.494 14.0603 14.318 14.2843C14.287 14.3252 14.287 14.3282 14.203 14.4292L13.718 15.0583C13.668 15.1273 13.606 15.1663 13.532 15.1723C13.46 15.1783 13.385 15.1532 13.31 15.0962C13.175 15.0062 12.617 14.5452 11.39 14.5452C10.506 14.5452 9.315 15.0753 9.315 16.2803C9.315 17.5053 10.437 18.0152 11.39 18.0152C12.696 18.0152 13.175 17.5533 13.31 17.4633C13.385 17.4063 13.46 17.3823 13.532 17.3883C13.606 17.3953 13.668 17.4333 13.718 17.5023L14.203 18.1313C14.287 18.2332 14.287 18.2353 14.318 18.2763C14.494 18.5002 14.154 18.7213 14.142 18.7273C13.919 18.8803 13.793 18.9482 13.6 19.0462C13.408 19.1442 13.202 19.2233 12.988 19.2833C12.771 19.3433 12.537 19.3862 12.282 19.4123C12.03 19.4363 11.733 19.4492 11.39 19.4492C10.63 19.4492 10.011 19.3603 9.534 19.1833C9.055 19.0053 7.509 18.2303 7.509 16.2113C7.509 14.2763 9.055 13.5542 9.534 13.3763ZM15.305 27.0123C15.174 27.4223 14.962 27.7633 14.667 28.0383C14.374 28.3143 13.994 28.5223 13.528 28.6663C13.063 28.8113 12.499 28.8832 11.836 28.8832C11.442 28.8832 11.083 28.8472 10.761 28.7753C10.444 28.7043 10.163 28.6193 9.915 28.5223L9.903 28.7142C9.903 28.7882 9.873 28.8333 9.815 28.8443C9.756 28.8583 8.251 28.8652 8.251 28.8652C8.165 28.8652 8.089 28.8383 8.027 28.7843C7.964 28.7302 7.932 28.6633 7.932 28.5823L7.935 20.5352C7.935 20.4552 7.964 20.3843 8.025 20.3293C8.084 20.2733 8.158 20.2453 8.243 20.2453H9.557H9.592C9.678 20.2453 9.755 20.2712 9.814 20.3253C9.872 20.3783 9.905 20.4423 9.912 20.5173V20.5373C9.913 20.5452 9.914 20.5543 9.914 20.5623V21.2183V21.2283V22.5863C10.159 22.4923 10.433 22.4212 10.742 22.3713C11.052 22.3212 11.403 22.2952 11.796 22.2952C12.459 22.2952 13.028 22.3682 13.499 22.5123C13.972 22.6553 14.354 22.8682 14.648 23.1483C14.943 23.4323 15.16 23.7773 15.296 24.1863C15.434 24.5953 15.502 25.0662 15.502 25.5982C15.502 26.1313 15.437 26.6033 15.305 27.0123ZM18.514 28.5503C18.514 28.6322 18.484 28.6993 18.424 28.7573C18.364 28.8133 18.29 28.8403 18.203 28.8403H17.67H17.662H16.439C16.339 28.8403 16.256 28.8092 16.186 28.7473C16.117 28.6842 16.084 28.6092 16.084 28.5212V27.8622V27.8533V20.7952V20.4862C16.084 20.4113 16.112 20.3453 16.172 20.2893C16.232 20.2332 16.305 20.2063 16.392 20.2063H17.718C17.806 20.2063 17.879 20.2343 17.94 20.2893C17.998 20.3463 18.028 20.4113 18.028 20.4862V20.7443V26.5172C18.028 26.9942 18.029 26.9153 18.029 27.0913H18.193H18.212C18.293 27.0973 18.364 27.1272 18.424 27.1803C18.483 27.2342 18.514 27.2973 18.514 27.3723V28.5503ZM25.203 22.7682V23.7163V25.6862C25.203 26.2422 25.159 26.7203 25.07 27.1193C24.982 27.5203 24.826 27.8463 24.597 28.1003C24.369 28.3523 24.054 28.5393 23.654 28.6562C23.254 28.7773 22.745 28.8362 22.126 28.8362C21.506 28.8362 20.995 28.7773 20.594 28.6562C20.189 28.5382 19.871 28.3523 19.642 28.1003C19.409 27.8453 19.249 27.5222 19.157 27.1243C19.066 26.7262 19.022 26.2502 19.022 25.6933V23.7153V23.0212V22.5803C19.022 22.5043 19.051 22.4383 19.11 22.3833C19.17 22.3263 19.244 22.2973 19.332 22.2973H19.51H20.382H20.513C20.599 22.2973 20.674 22.3263 20.737 22.3833C20.801 22.4383 20.832 22.5043 20.832 22.5803V23.7163V25.7323C20.832 25.9563 20.83 26.1653 20.845 26.3563C20.86 26.5463 20.91 26.7083 20.995 26.8433C21.08 26.9783 21.211 27.0833 21.388 27.1582C21.567 27.2332 21.815 27.2712 22.134 27.2712C22.453 27.2712 22.699 27.2332 22.876 27.1582C23.05 27.0833 23.18 26.9762 23.265 26.8392C23.349 26.7012 23.398 26.5373 23.415 26.3472C23.43 26.1562 23.437 25.9492 23.437 25.7242V23.7173V22.5813C23.437 22.5053 23.469 22.4393 23.526 22.3843C23.585 22.3272 23.66 22.2983 23.747 22.2983H23.906H24.459H24.891C24.979 22.2983 25.051 22.3272 25.11 22.3843C25.171 22.4393 25.201 22.5053 25.201 22.5813V22.7682H25.203ZM32.485 26.1913H28.784C28.621 26.1913 28.621 26.0522 28.621 26.0522V25.1003C28.621 25.1003 28.628 24.9443 28.784 24.9443H30.732C30.72 24.7633 30.694 24.5963 30.658 24.4423C30.62 24.2893 30.553 24.1593 30.455 24.0483C30.359 23.9403 30.221 23.8533 30.044 23.7903C29.865 23.7283 29.625 23.6962 29.325 23.6962C29.025 23.6962 28.775 23.7263 28.576 23.7863C28.374 23.8453 28.209 23.9282 28.078 24.0343C27.947 24.1413 27.848 24.2712 27.782 24.4242C27.717 24.5772 27.67 24.7503 27.647 24.9443C27.647 24.9443 27.57 25.6343 27.647 26.1913C27.67 26.3793 27.72 26.5513 27.792 26.7063C27.864 26.8643 27.968 26.9973 28.101 27.1103C28.236 27.2233 28.408 27.3093 28.616 27.3693C28.826 27.4293 29.087 27.4573 29.4 27.4573C29.669 27.4573 29.894 27.4453 30.076 27.4203C30.256 27.3943 30.416 27.3592 30.554 27.3112C30.69 27.2652 30.816 27.2082 30.929 27.1422C31.041 27.0772 31.162 27.0002 31.295 26.9123C31.369 26.8563 31.443 26.8323 31.515 26.8372C31.587 26.8442 31.648 26.8813 31.698 26.9503L32.176 27.5712C32.259 27.6723 32.259 27.6742 32.29 27.7142C32.464 27.9342 32.128 28.1532 32.116 28.1593C31.895 28.3092 31.771 28.3762 31.581 28.4742C31.39 28.5712 31.188 28.6493 30.977 28.7083C30.762 28.7673 30.531 28.8103 30.28 28.8353C30.032 28.8593 29.739 28.8723 29.399 28.8723C28.649 28.8723 28.037 28.7843 27.567 28.6103C27.094 28.4353 26.726 28.1983 26.463 27.8973C26.2 27.5983 26.022 27.2493 25.925 26.8513C25.827 26.4543 25.778 26.0312 25.778 25.5813C25.778 25.1423 25.826 24.7243 25.925 24.3273C26.022 23.9303 26.203 23.5823 26.469 23.2812C26.735 22.9823 27.101 22.7432 27.571 22.5643C28.04 22.3853 28.646 22.2962 29.39 22.2962C29.897 22.2962 30.329 22.3442 30.685 22.4363C31.041 22.5312 31.335 22.6643 31.567 22.8363C31.797 23.0083 31.977 23.2122 32.105 23.4513C32.234 23.6873 32.327 23.9522 32.388 24.2432C32.448 24.5333 32.481 24.8433 32.485 25.1702C32.493 25.5013 32.493 25.8413 32.485 26.1913Z" fill="black"/>
</g>
<defs>
<clipPath id="clip0_10_405">
<rect width="40" height="40" fill="white" transform="translate(0 0.03125)"/>
</clipPath>
</defs>
</svg>
