<svg width="40" height="41" viewBox="0 0 40 41" fill="none" xmlns="http://www.w3.org/2000/svg">
<g clip-path="url(#clip0_10_463)">
<path d="M39.8626 34.0742C39.7415 29.4614 39.8332 24.843 39.8332 20.2284C39.8332 15.4302 39.8406 10.6302 39.8296 5.83203C39.8222 2.41185 37.5415 0.145792 34.125 0.145792C25.0461 0.143958 15.9672 0.149461 6.89012 0.138451C5.87544 0.136617 4.90665 0.241207 3.92866 0.571482C1.59472 1.36047 0.183702 3.18799 0.181867 5.64854C0.176362 15.2155 0.18003 24.7843 0.18003 34.3513C0.18003 34.81 0.202057 35.2596 0.348846 35.7073C1.38187 38.8522 2.89196 39.955 6.23875 39.9605C10.6718 39.966 15.103 39.9623 19.536 39.9623C24.3342 39.9623 29.1342 39.9788 33.9323 39.9568C37.4883 39.9348 39.9654 37.9825 39.8626 34.0742ZM31.3562 14.2797C31.3158 15.3109 31.1066 15.5421 30.1195 15.5568C28.9268 15.5733 27.7342 15.577 26.5433 15.5605C25.9268 15.5513 25.6626 15.7953 25.6663 16.4284C25.6828 20.2797 25.6589 24.1329 25.6901 27.9843C25.7011 29.4247 26.3507 29.999 27.7764 29.8595C28.5617 29.7825 29.3305 29.5476 30.1066 29.3807C30.8112 29.2302 31.191 29.399 31.2149 30.2302C31.2828 32.6706 31.2644 32.6816 28.8057 32.821C27.4626 32.8981 26.1323 33.021 24.7874 32.8063C23.2479 32.5623 22.358 31.8045 22.0534 30.2614C21.6131 28.021 21.9048 25.7495 21.8259 23.4926C21.8167 23.2485 21.8241 23.0027 21.8241 22.7586C21.8241 20.7715 21.8296 18.7843 21.8222 16.7972C21.8186 15.6577 21.7342 15.5586 20.6461 15.566C17.9819 15.5807 18.3727 15.2614 18.3562 17.8467C18.336 21.0871 18.3507 24.3274 18.3433 27.5678C18.3433 28.0559 18.347 28.5495 18.292 29.0339C17.9654 31.9091 17.0938 32.7568 14.2094 32.9385C12.7415 33.032 11.2846 32.8137 9.8259 32.6632C9.16719 32.5953 8.87545 32.2669 8.83692 31.5917C8.69747 29.1366 8.68646 29.1348 11.1011 29.6559C13.8608 30.2522 14.4993 29.7476 14.4993 26.9605C14.5011 23.5678 14.5011 20.1733 14.4975 16.7807C14.4956 15.5917 14.4663 15.566 13.2461 15.5623C12.1764 15.5586 11.1048 15.5403 10.0369 15.566C9.19838 15.5862 8.8149 15.2522 8.80206 14.3807C8.77637 12.654 8.90848 12.4816 10.6332 12.4742C11.6112 12.4706 12.591 12.4485 13.5672 12.4797C14.2296 12.4999 14.5195 12.2449 14.503 11.5715C14.4791 10.5935 14.4865 9.61552 14.5048 8.63754C14.525 7.56598 14.7635 7.33478 15.7984 7.31093C18.3488 7.25221 18.3488 7.25221 18.3488 9.82285C18.3488 9.9146 18.3488 10.0063 18.3488 10.0981C18.3488 12.6118 18.6663 12.8651 21.1984 12.4706C21.7415 12.3862 21.8149 12.054 21.8167 11.6302C21.8222 10.5917 21.8516 9.5513 21.8149 8.51277C21.7855 7.67423 22.0754 7.30359 22.9727 7.29625C25.6644 7.27607 25.6663 7.25038 25.6663 9.96414C25.6663 12.4742 25.6663 12.4742 28.1947 12.4742C28.8663 12.4742 29.5415 12.4467 30.2112 12.4963C31.1764 12.566 31.4076 12.955 31.3562 14.2797Z" fill="black"/>
</g>
<defs>
<clipPath id="clip0_10_463">
<rect width="40" height="40" fill="white" transform="translate(0 0.03125)"/>
</clipPath>
</defs>
</svg>
