<svg width="46" height="41" viewBox="0 0 46 41" fill="none" xmlns="http://www.w3.org/2000/svg">
<mask id="path-1-inside-1_114_21" fill="white">
<path d="M45.6066 0.03125L41.9619 6.4165L30.1329 27.1428L26.462 20.6958V20.6939L34.6107 6.4165L38.2554 0.03125H45.6047H45.6066Z"/>
</mask>
<path d="M45.6066 0.03125L54.2913 4.98853L62.829 -9.96875H45.6066V0.03125ZM41.9619 6.4165L33.2771 1.45922L33.2768 1.45976L41.9619 6.4165ZM30.1329 27.1428L21.4429 32.0909L30.1229 47.335L38.818 32.0996L30.1329 27.1428ZM26.462 20.6958H16.462V23.3432L17.772 25.6439L26.462 20.6958ZM26.462 20.6939L17.777 15.7371L16.462 18.0411V20.6939H26.462ZM34.6107 6.4165L25.9259 1.45922L25.9256 1.45965L34.6107 6.4165ZM38.2554 0.03125V-9.96875H32.449L29.5706 -4.92603L38.2554 0.03125ZM36.9218 -4.92603L33.2771 1.45922L50.6466 11.3738L54.2913 4.98853L36.9218 -4.92603ZM33.2768 1.45976L21.4479 22.1861L38.818 32.0996L50.6469 11.3732L33.2768 1.45976ZM38.823 22.1948L35.1521 15.7477L17.772 25.6439L21.4429 32.0909L38.823 22.1948ZM36.462 20.6958V20.6939H16.462V20.6958H36.462ZM35.1471 25.6508L43.2957 11.3734L25.9256 1.45965L17.777 15.7371L35.1471 25.6508ZM43.2955 11.3738L46.9402 4.98853L29.5706 -4.92603L25.9259 1.45922L43.2955 11.3738ZM38.2554 10.0312H45.6047V-9.96875H38.2554V10.0312ZM45.6047 10.0312H45.6066V-9.96875H45.6047V10.0312Z" fill="black" mask="url(#path-1-inside-1_114_21)"/>
<path d="M19.1183 7.79988L19.9083 6.4165H10.9828L15.4399 14.2432L19.1127 20.6921L22.7836 27.1391L26.4564 33.588L22.778 40.0312L19.1052 33.5842L11.7634 20.6883L3.63534 6.4165L0 0.03125H30.9004H30.9023L27.2595 6.4165L22.7911 14.2469L19.1183 7.79988Z" fill="black"/>
</svg>
