<svg width="54" height="41" viewBox="0 0 54 41" fill="none" xmlns="http://www.w3.org/2000/svg">
<g clip-path="url(#clip0_10_377)">
<path d="M45.2666 8.82715H53.2214V39.8293H45.2666V36.2336H49.5612V12.4917H45.2666V8.82715Z" fill="black"/>
<path d="M8.06666 8.82715H0.111816V39.8293H8.06666V36.2336H3.77203V12.4917H8.06666V8.82715Z" fill="black"/>
<path d="M9.15908 24.7993C9.15908 22.1929 9.18274 19.5864 9.14833 16.98C9.13112 15.752 9.98274 14.7821 11.1333 14.4853C11.2645 14.4509 11.4064 14.4552 11.544 14.4552C13.729 14.4531 15.9139 14.4595 18.0989 14.4488C18.5139 14.4466 18.8795 14.5714 19.2257 14.7606C19.4257 14.8703 19.5483 14.8488 19.6924 14.6897C20.3956 13.9112 21.101 13.137 21.8107 12.3649C22.6731 11.4273 23.486 10.4509 24.1655 9.36922C25.0688 7.93481 25.6989 6.39718 25.9956 4.71976C26.1612 3.78642 26.4193 2.8746 26.944 2.06599C27.5462 1.13696 28.344 0.431587 29.4408 0.201479C30.5612 -0.0329295 31.643 0.0982523 32.6042 0.818682C33.5311 1.51331 34.101 2.41868 34.387 3.53696C34.6408 4.52406 34.6042 5.51976 34.5075 6.50901C34.3204 8.42298 33.7247 10.2359 33.0429 12.023C32.8623 12.4983 32.658 12.9606 32.4666 13.4294C32.3354 13.752 32.387 13.8316 32.7354 13.8316C34.7311 13.8337 36.7268 13.8208 38.7225 13.838C39.8623 13.8488 40.9591 14.081 41.972 14.6273C43.0322 15.1972 43.7999 16.0466 44.0516 17.223C44.3526 18.6316 44.1784 19.9864 43.1483 21.109C42.944 21.3327 42.8838 21.5348 43.0193 21.8251C43.3913 22.6187 43.4774 23.4617 43.3311 24.3198C43.1913 25.1327 42.7548 25.7886 42.1354 26.3112C41.8343 26.5649 41.7655 26.8122 41.8494 27.2058C42.1182 28.466 41.9118 29.6294 40.9935 30.6036C40.7161 30.8983 40.4128 31.1649 40.0731 31.3886C39.9397 31.4767 39.8817 31.5929 39.8709 31.7542C39.8236 32.481 39.6838 33.1907 39.3505 33.8423C38.7419 35.0294 37.8085 35.7972 36.4516 35.9886C36.1419 36.0316 35.8343 36.0294 35.5247 36.0294C32.3935 36.0294 29.2623 36.0273 26.1311 36.0316C25.0881 36.0337 24.0494 35.9864 23.0322 35.7606C22.0279 35.537 21.0645 35.1972 20.1935 34.638C19.9419 34.4767 19.7591 34.4897 19.529 34.6768C19.0989 35.0316 18.5978 35.2101 18.0322 35.2079C15.8903 35.2036 13.7483 35.1907 11.6064 35.2122C10.486 35.223 9.13972 34.1327 9.15478 32.7735C9.18059 30.1155 9.16123 27.4574 9.15908 24.7993ZM20.6214 24.6961C20.6214 26.6574 20.6257 28.6187 20.6171 30.58C20.615 30.9133 20.7161 31.1778 20.9677 31.3993C21.3376 31.7284 21.7376 32.0058 22.187 32.2058C23.344 32.7219 24.5655 32.9305 25.8257 32.9305C28.9827 32.9305 32.1397 32.9305 35.2967 32.9305C35.486 32.9305 35.6752 32.937 35.8645 32.9262C36.1827 32.9112 36.4107 32.7628 36.544 32.4595C36.701 32.0983 36.7827 31.7219 36.7677 31.3305C36.7483 30.7993 36.7032 30.2681 36.6688 29.737C36.6494 29.4488 36.787 29.2595 37.0494 29.1585C37.1698 29.1112 37.2946 29.0767 37.4193 29.0509C37.7397 28.9864 38.0602 28.9241 38.3569 28.78C38.6924 28.6165 38.9053 28.2789 38.8214 27.9434C38.7397 27.6208 38.6666 27.294 38.4881 26.9993C38.1935 26.5133 37.9118 26.023 37.6408 25.5241C37.4365 25.1477 37.5655 24.8617 37.9655 24.7112C38.3548 24.5671 38.7634 24.4983 39.1655 24.4144C39.4451 24.3563 39.7096 24.2509 39.9505 24.0983C40.2236 23.9241 40.3139 23.6896 40.2516 23.3671C40.1892 23.0488 40.0537 22.7585 39.8752 22.4961C39.5225 21.9778 39.144 21.4767 38.7806 20.9671C38.5526 20.6466 38.6021 20.3907 38.9397 20.1907C39.086 20.1026 39.2473 20.0402 39.4042 19.9671C39.9075 19.7305 40.43 19.5327 40.8021 19.0767C41.2537 18.5262 41.1096 17.6832 40.4817 17.3671C39.8623 17.0531 39.1913 16.9413 38.5096 16.937C36.0494 16.9262 33.5892 16.937 31.129 16.9305C29.8257 16.9284 28.8171 15.894 28.8214 14.5907C28.8236 13.9219 29.1118 13.3413 29.3655 12.7499C30.2236 10.7477 31.0257 8.72621 31.3634 6.55847C31.5053 5.65309 31.5849 4.74341 31.2171 3.86814C31.0709 3.52191 30.8171 3.24664 30.4193 3.21868C30.0343 3.19288 29.7462 3.40148 29.5634 3.73696C29.4107 4.01653 29.2903 4.31116 29.215 4.62298C29.0236 5.40793 28.9096 6.21008 28.6688 6.98428C28.2042 8.4789 27.5548 9.8875 26.6817 11.1907C25.6064 12.795 24.3204 14.2294 23.0128 15.6402C22.2881 16.4208 21.5784 17.2144 20.8967 18.0337C20.6989 18.2703 20.615 18.5284 20.6171 18.838C20.6257 20.7907 20.6214 22.7434 20.6214 24.6961ZM12.2064 24.8316C12.2064 27.109 12.2064 29.3886 12.2064 31.666C12.2064 32.0681 12.243 32.1047 12.6516 32.1047C14.0967 32.1047 15.5397 32.1047 16.9849 32.1047C17.3763 32.1047 17.4171 32.066 17.4171 31.6789C17.4171 27.0961 17.4171 22.5133 17.4171 17.9305C17.4171 17.5714 17.3935 17.5477 17.0365 17.5477C15.5655 17.5477 14.0967 17.5477 12.6257 17.5477C12.2171 17.5477 12.2064 17.5585 12.2064 17.9692C12.2064 20.2574 12.2064 22.5434 12.2064 24.8316Z" fill="black"/>
</g>
<defs>
<clipPath id="clip0_10_377">
<rect width="53.3333" height="40" fill="white" transform="translate(0 0.03125)"/>
</clipPath>
</defs>
</svg>
