<svg width="58" height="36" viewBox="0 0 58 36" fill="none" xmlns="http://www.w3.org/2000/svg">
<path d="M57.6775 5.59583C57.6775 5.22932 57.6382 4.86281 57.6106 4.4963C57.5146 3.19169 56.9343 2.14015 55.9656 1.27332C55.0363 0.442846 53.9353 0.0414308 52.7208 0.0399764C36.7761 0.0268867 20.8314 0.0312501 4.88661 0.0356133C4.56664 0.0356133 4.2394 0.0588831 3.9296 0.130149C2.73408 0.403579 1.73344 1.00425 1.00041 2.00344C0.38665 2.83972 0.00559856 3.76764 0.00559856 4.82063C0.00268973 13.358 0.00414272 21.8955 0.00414272 30.4343C0.00414272 30.5507 -0.00894878 30.6699 0.011413 30.7819C0.242665 32.0196 0.798247 33.0799 1.77125 33.8929C2.58136 34.5707 3.51073 35.0186 4.58409 35.0201C12.6605 35.0303 20.7383 35.0259 28.8146 35.0259C36.9026 35.0259 44.9921 35.0259 53.0801 35.0259C53.1848 35.0259 53.2924 35.0405 53.3928 35.0215C54.6014 34.7947 55.6238 34.2536 56.4412 33.3112C57.2659 32.3614 57.6702 31.2575 57.6731 30.0256C57.6862 21.8809 57.6804 13.7391 57.6775 5.59583ZM49.396 11.2826C49.4019 10.7895 49.6913 10.4114 50.1712 10.2398C50.6585 10.0653 51.1253 10.1292 51.5427 10.4536C51.9005 10.7314 52.0373 11.1022 52.0329 11.5458C52.0256 12.497 52.03 13.4482 52.03 14.4009C52.03 15.3535 52.0285 16.3047 52.0314 17.2559C52.0329 17.8042 51.8031 18.2202 51.3144 18.4674C50.7632 18.7452 50.212 18.6754 49.7815 18.2609C49.572 18.0587 49.4077 17.7009 49.4033 17.4115C49.3713 15.368 49.3728 13.3246 49.396 11.2826ZM45.9665 13.4511C45.9723 12.7137 46.5643 12.2105 47.3613 12.2309C48.0798 12.2498 48.6208 12.7923 48.6165 13.4889C48.615 13.8147 48.615 14.1391 48.6136 14.4649C48.6136 14.779 48.6136 15.0917 48.6136 15.4059C48.6136 15.7084 48.6179 16.0094 48.6208 16.312C48.6223 16.6145 48.6223 16.9155 48.6107 17.2181C48.5656 18.402 47.802 18.7001 46.8552 18.5532C46.4552 18.4907 45.968 17.7955 45.9665 17.3548C45.9593 16.0531 45.9549 14.7528 45.9665 13.4511ZM5.69235 6.30268C5.69381 5.52457 6.00505 5.18278 6.7148 4.96753C7.57727 4.70574 8.29721 5.51584 8.30303 6.19796C8.30885 6.92953 8.31321 7.66256 8.29866 8.39413C8.2943 8.62247 8.3583 8.68501 8.58664 8.6821C9.49274 8.66901 10.4003 8.6821 11.3064 8.67483C12.5441 8.6661 13.7062 8.95117 14.6748 9.73219C15.5882 10.4696 16.2339 11.4033 16.4725 12.5974C16.7037 13.7536 16.6121 14.843 16.0551 15.8916C15.4631 17.0057 14.605 17.8187 13.4342 18.2987C12.6866 18.6041 11.9056 18.6725 11.1057 18.6463C10.5835 18.6288 10.06 18.6434 9.53637 18.6434C8.74662 18.6434 7.95542 18.6448 7.16568 18.6434C6.23631 18.6419 5.6909 18.1125 5.68944 17.1759C5.68362 13.5529 5.68508 9.92708 5.69235 6.30268ZM16.9524 28.5014C16.9582 29.137 16.5263 29.4366 16.0492 29.6795C15.594 29.9107 15.1228 29.7871 14.7359 29.4366C14.381 29.1137 14.2298 28.7196 14.2312 28.2512C14.2327 26.695 14.2312 25.1373 14.2312 23.5811C14.2312 22.9775 13.9185 22.6198 13.3833 22.6183C12.7041 22.6154 12.3492 22.947 12.3478 23.5986C12.3448 25.2362 12.3419 26.8739 12.3492 28.513C12.3521 29.1544 11.9507 29.4671 11.4358 29.6969C10.9501 29.9136 10.5312 29.7667 10.1458 29.4453C9.81416 29.169 9.68181 28.8316 9.68762 28.3894C9.70799 26.7983 9.69635 25.2072 9.69635 23.6146C9.69635 22.9703 9.33275 22.6168 8.67099 22.6168C8.15031 22.6168 7.81289 23.0037 7.81289 23.6015C7.81289 25.2042 7.78962 26.8085 7.82307 28.4112C7.83762 29.1283 7.05805 29.7871 6.47192 29.7973C5.79416 29.8089 5.0975 29.1283 5.09459 28.4345C5.08877 26.7387 5.05678 25.0414 5.10332 23.347C5.1455 21.7849 6.21303 20.4032 7.77071 20.0047C8.83534 19.7313 9.90288 19.852 10.8497 20.5181C10.9282 20.5734 11.1188 20.5807 11.19 20.5239C12.2329 19.6949 14.1556 19.7342 15.2275 20.4207C16.0405 20.9414 16.5801 21.622 16.8288 22.5383C16.8972 22.7885 16.9393 23.0517 16.9437 23.3106C16.9582 24.1702 16.9495 25.0297 16.9495 25.8893C16.951 26.759 16.9452 27.6302 16.9524 28.5014ZM18.561 10.7314C19.4162 9.57802 20.5405 8.82318 22.0109 8.75482C23.4566 8.68792 24.9052 8.67192 26.3523 8.68646C27.1464 8.69374 27.75 9.25078 27.7587 10.2078C27.7689 11.3451 27.7616 12.4839 27.7616 13.6227C27.7616 14.7499 27.7718 15.8756 27.7558 17.0028C27.75 17.3868 27.7093 17.7678 27.4475 18.098C27.1741 18.4441 26.8163 18.6318 26.4003 18.6376C24.9837 18.6579 23.5642 18.6827 22.1476 18.6318C21.1353 18.5954 20.2263 18.1765 19.4482 17.538C18.5872 16.8312 17.972 15.9367 17.7233 14.8372C17.3887 13.3508 17.6491 11.9618 18.561 10.7314ZM27.8925 24.9424C27.8053 27.3364 26.1792 29.2184 23.8376 29.7129C22.5592 29.9835 21.304 29.79 20.219 29.0148C19.0119 28.1523 18.1174 27.0295 18.0156 25.4937C17.9196 24.0407 17.9312 22.579 17.9356 21.1203C17.9371 20.3814 18.6221 19.8796 19.4991 19.8971C20.0969 19.9087 20.6452 20.5225 20.6466 21.1988C20.651 22.4409 20.6466 23.6844 20.6481 24.9265C20.6495 25.9169 21.6226 26.9554 22.613 27.0761C23.6951 27.2084 24.895 26.5423 25.1495 25.3133C25.1728 25.2013 25.18 25.0835 25.18 24.9686C25.183 24.3418 25.1815 23.7149 25.1815 23.0866C25.18 22.4598 25.18 21.8329 25.1815 21.2046C25.1815 20.5138 25.7167 19.8971 26.3174 19.8942C27.2642 19.8898 27.8954 20.4076 27.8998 21.209C27.9056 22.4569 27.9376 23.7004 27.8925 24.9424ZM36.8735 29.2911C36.3761 29.6402 35.7973 29.7711 35.2068 29.79C34.3239 29.8162 33.4411 29.7973 32.5583 29.7973C31.6987 29.7973 30.8392 29.7973 29.9796 29.7973C29.2248 29.7958 28.7186 29.2722 28.6561 28.5698C28.5848 27.7669 29.264 27.0732 30.0014 27.0761C31.6973 27.0848 33.3946 27.079 35.0904 27.0775C35.4904 27.0775 35.7376 26.7445 35.5602 26.4056C35.4991 26.2907 35.2999 26.1845 35.1617 26.1816C34.0462 26.1642 32.9306 26.1525 31.8165 26.1758C30.4319 26.2049 29.139 25.1388 28.8117 23.7818C28.4641 22.3391 29.1099 20.8468 30.4247 20.188C30.8464 19.9771 31.354 19.8549 31.8253 19.8433C33.4862 19.8025 35.1471 19.8244 36.8095 19.8287C37.6866 19.8302 38.1345 20.4192 38.2043 21.1203C38.2654 21.7413 37.5746 22.4889 36.891 22.4816C35.2649 22.4656 33.6375 22.4758 32.0114 22.4758C31.7787 22.4758 31.5198 22.4787 31.45 22.7463C31.4064 22.9121 31.4326 23.1273 31.5082 23.2815C31.5533 23.376 31.7482 23.4429 31.8776 23.4444C32.9815 23.4575 34.0854 23.4371 35.1893 23.4575C36.0038 23.472 36.7615 23.6917 37.3506 24.2923C37.9614 24.9163 38.2858 25.6551 38.3047 26.5525C38.328 27.7466 37.8204 28.6279 36.8735 29.2911ZM38.2509 10.3416C38.1462 10.6412 37.976 10.9394 37.7651 11.1764C37.0641 11.9604 36.3281 12.7137 35.6169 13.4875C35.5689 13.5398 35.5646 13.71 35.6111 13.7609C36.142 14.3543 36.6874 14.9361 37.2284 15.5208C37.5033 15.8175 37.7985 16.0967 38.0487 16.4123C38.5796 17.0828 38.2189 18.1911 37.4131 18.5154C36.6496 18.8237 36.1507 18.4267 35.6736 17.938C35.3144 17.57 34.9682 17.189 34.6177 16.8123C34.3588 16.533 34.0927 16.2596 33.8469 15.9687C33.6636 15.7549 33.5342 15.7346 33.3248 15.96C32.6237 16.7163 31.8849 17.4377 31.1882 18.1983C30.4218 19.0346 29.1157 18.4209 28.9208 17.6122C28.8001 17.109 28.9281 16.6727 29.2437 16.309C29.8269 15.6386 30.4377 14.9914 31.0559 14.3514C31.7307 13.6533 31.7264 13.6736 31.0632 12.977C30.3956 12.276 29.7425 11.5589 29.1142 10.823C28.5717 10.1889 29.0022 9.13443 29.6451 8.81009C30.0494 8.60647 30.8915 8.75628 31.2464 9.1257C31.9911 9.9009 32.7241 10.6877 33.4615 11.4688C33.4993 11.5095 33.5429 11.5458 33.6098 11.6069C34.1829 10.9772 34.7457 10.3503 35.3188 9.73219C35.5791 9.45149 35.8351 9.15624 36.1362 8.92645C36.5332 8.62393 37.176 8.58902 37.6953 8.94826C38.1636 9.27405 38.4254 9.84563 38.2509 10.3416ZM39.1991 16.376C39.2166 15.5964 39.9787 15.0146 40.7379 15.195C41.5015 15.3768 41.7778 15.7244 41.7778 16.5054C41.7778 16.6218 41.7778 16.7381 41.7778 16.853C41.7778 16.9461 41.7764 17.0392 41.7764 17.1308C41.7764 17.2239 41.7764 17.317 41.7778 17.4086C41.7953 18.146 41.0564 18.6085 40.4747 18.6318C39.8231 18.6579 39.1977 18.0151 39.1962 17.3824C39.1977 17.0493 39.1919 16.7119 39.1991 16.376ZM41.8331 28.5043C41.8302 29.2301 41.2993 29.7289 40.5357 29.8613C40.1561 29.9267 39.3838 29.5297 39.2369 28.8926C39.2122 28.7821 39.1991 28.6672 39.1991 28.5552C39.1962 27.3248 39.1977 26.0929 39.1977 24.8625C39.1977 23.632 39.1977 22.4001 39.1977 21.1697C39.1977 20.5632 39.7242 20.028 40.3321 19.9625C41.3008 19.8564 41.8287 20.6127 41.8316 21.3631C41.8447 23.7426 41.8433 26.1234 41.8331 28.5043ZM43.7471 8.73591C44.755 8.67774 45.2437 9.34968 45.2481 10.0056C45.2655 12.4447 45.2626 14.8823 45.2495 17.3213C45.2466 17.9685 44.7812 18.4499 44.0263 18.6303C43.5653 18.7408 42.9137 18.367 42.681 17.8522C42.6228 17.7227 42.6141 17.5613 42.6127 17.4144C42.6083 16.1607 42.6097 14.9055 42.6097 13.6518C42.6097 12.4447 42.6432 11.2361 42.5981 10.0289C42.569 9.23333 43.1828 8.76791 43.7471 8.73591ZM51.1762 29.7871C49.8411 29.8235 48.503 29.8395 47.1693 29.7827C46.1469 29.7391 45.2277 29.3202 44.4467 28.657C43.5784 27.9182 42.9966 27.0019 42.7421 25.8689C42.4061 24.3694 42.7101 23.0226 43.6104 21.8024C44.2751 20.9006 45.1506 20.2636 46.2429 20.0193C46.8406 19.8855 47.4777 19.9262 48.0972 19.9015C48.4449 19.8869 48.7939 19.8985 49.143 19.8985C49.8513 19.8985 50.5596 19.8985 51.2693 19.8985C51.8613 19.8985 52.3354 20.2505 52.4939 20.8105C52.6496 21.3559 52.4241 21.9653 51.9733 22.2692C51.6795 22.467 51.3711 22.5572 51.0119 22.5528C49.8265 22.5383 48.6426 22.5441 47.4573 22.5485C46.4567 22.5514 45.5346 23.4022 45.3368 24.3869C45.0779 25.6711 46.0683 26.8754 47.0719 27.0412C47.1839 27.0601 47.2988 27.0775 47.4108 27.0775C48.6543 27.0804 49.8964 27.0892 51.1399 27.0746C51.7086 27.0688 52.1158 27.335 52.379 27.7946C52.9055 28.7152 52.0896 29.7624 51.1762 29.7871Z" fill="black"/>
<path d="M8.58066 15.9308C9.68311 15.9178 10.7856 15.9265 11.8865 15.9236C11.9753 15.9236 12.0654 15.9003 12.1512 15.877C13.2406 15.5905 13.9736 14.6102 13.8936 13.4554C13.8195 12.3806 12.9701 11.4323 11.856 11.4018C10.755 11.3713 9.65111 11.4003 8.55012 11.3916C8.35523 11.3902 8.29414 11.4425 8.29705 11.6418C8.30868 12.3137 8.30142 12.9871 8.30142 13.659C8.30142 14.3194 8.31014 14.9811 8.29705 15.6414C8.29268 15.8625 8.34795 15.9338 8.58066 15.9308Z" fill="black"/>
<path d="M22.4211 15.9265C23.2225 15.9221 24.0238 15.9178 24.8252 15.9308C25.0463 15.9338 25.1234 15.8829 25.1161 15.6472C25.0986 14.9855 25.1103 14.3237 25.1103 13.662C25.1103 12.9886 25.103 12.3152 25.1146 11.6418C25.1176 11.4469 25.0637 11.3858 24.8645 11.3887C24.0282 11.3989 23.1919 11.3727 22.3556 11.4003C21.7608 11.4193 21.2052 11.6156 20.8299 12.1028C20.2729 12.8228 20.1158 13.6343 20.4445 14.5026C20.7398 15.2778 21.5804 15.9323 22.4211 15.9265Z" fill="black"/>
</svg>
