<svg width="87" height="41" viewBox="0 0 87 41" fill="none" xmlns="http://www.w3.org/2000/svg">
<g id="madpack" clip-path="url(#clip0_10_320)">
<g id="madpack_2">
<path id="Vector" d="M39.6086 18.1106C39.6001 18.0808 39.5831 18.0553 39.5703 18.0255C38.3495 15.3583 36.2565 13.176 33.6573 11.836C33.0107 11.4999 32.3259 11.2192 31.6197 10.998C32.3641 11.0873 33.0873 11.2447 33.7892 11.4574C33.9764 10.9044 34.1253 10.3343 34.2316 9.7473V9.74304C34.3635 9.03689 34.4401 8.30946 34.4528 7.56927C34.4571 7.48844 34.4571 7.40762 34.4571 7.33105C34.4571 4.77016 33.7211 2.38369 32.445 0.363059C32.4322 0.337535 32.4194 0.316265 32.4024 0.290742C32.3982 0.286488 32.3982 0.282234 32.3939 0.27798C32.2748 0.133345 32.0919 0.03125 31.8877 0.03125C31.8239 0.03125 31.7601 0.0397579 31.7048 0.0567738C30.9901 0.307757 30.3095 0.622551 29.6586 0.992645C29.1737 1.2649 28.71 1.56693 28.2676 1.89874C28.0464 2.06464 27.8294 2.23906 27.6167 2.41772C27.3147 2.67296 27.0254 2.94096 26.7532 3.22598C26.5234 3.4642 26.298 3.70667 26.0853 3.96191C25.9577 4.1108 25.8343 4.26394 25.7152 4.42134C25.6982 4.43835 25.6854 4.45962 25.6727 4.47664C25.5578 4.61277 25.3876 4.69785 25.1962 4.69785C25.1579 4.69785 25.1196 4.69359 25.0814 4.68934C25.2005 4.71912 24.7155 4.6 24.5666 4.56172C23.0437 4.21289 21.457 4.02997 19.8277 4.02997C18.1942 4.02997 16.6032 4.21715 15.076 4.56597C14.9314 4.6 14.7868 4.63404 14.6379 4.67658H14.6336C14.6124 4.68083 14.5656 4.68934 14.5656 4.68934C14.5103 4.7021 14.4847 4.7021 14.4507 4.7021C14.255 4.7021 14.0849 4.61702 13.9743 4.47664H13.97C13.8296 4.28947 13.6807 4.10655 13.5319 3.92788C13.3192 3.67264 13.0937 3.43017 12.8597 3.19194C12.5875 2.91118 12.2982 2.64744 12.0004 2.39645C11.7877 2.21353 11.5708 2.04337 11.3453 1.87322C10.9157 1.55417 10.4562 1.25639 9.98405 0.988391C9.35872 0.635313 8.6951 0.329027 8.0017 0.0822975C7.98043 0.0737896 7.96342 0.0652817 7.94215 0.0610277C7.88259 0.0397579 7.82303 0.03125 7.75923 0.03125C7.54227 0.03125 7.3551 0.141853 7.2445 0.303504H7.24024C5.93853 2.33264 5.18983 4.74464 5.18983 7.3353C5.18983 7.42038 5.18983 7.50546 5.19409 7.59054C5.20685 8.32648 5.27917 9.04965 5.41529 9.7473C5.5259 10.3343 5.67053 10.9044 5.85771 11.4616C6.55961 11.2489 7.28278 11.0916 8.02723 11.0022C7.32107 11.2234 6.63618 11.5042 5.98958 11.8402C3.39041 13.176 1.30171 15.3625 0.0808253 18.0298C0.0680634 18.0553 0.0510475 18.0851 0.0425396 18.1148C0.0127619 18.1786 0 18.2552 0 18.3318C0 18.6764 0.272254 18.9486 0.616824 18.9529H0.621078C0.642348 18.9529 0.663618 18.9529 0.689142 18.9486C0.863554 18.9401 1.04222 18.9359 1.22089 18.9359C1.53993 18.9359 1.85898 18.9486 2.16952 18.9699C1.53993 19.9526 1.03371 21.0331 0.689142 22.1731H0.693396C0.67638 22.2284 0.667872 22.2922 0.667872 22.356C0.667872 22.6623 0.88057 22.9091 1.16984 22.9644C1.20812 22.9729 1.24641 22.9729 1.2847 22.9729C1.35701 22.9729 1.42933 22.9601 1.49314 22.9346C1.53143 22.9176 1.56546 22.9005 1.60374 22.8835C1.83771 22.7772 2.07168 22.6751 2.30565 22.5858C3.18196 22.2412 4.10933 21.9945 5.06647 21.8498C4.5645 22.4454 4.11358 23.0877 3.72647 23.7684C3.68818 23.8322 3.65415 23.896 3.61587 23.964C3.5946 24.0278 3.58184 24.0917 3.58184 24.1597C3.58184 24.466 3.79453 24.7127 4.0838 24.768C4.11784 24.7723 4.15187 24.7765 4.19015 24.7765C4.23269 24.7723 4.27949 24.768 4.32202 24.7638C4.32628 24.7638 4.32628 24.7638 4.32628 24.7638C4.52196 24.751 4.7219 24.7425 4.92183 24.7425C5.60247 24.7425 6.26183 24.8276 6.89142 24.9892C6.98075 25.0105 7.07008 25.036 7.15942 25.0616C8.29097 25.3934 9.31618 25.9634 10.1797 26.7206C10.754 27.2226 11.256 27.8096 11.6686 28.4605C11.8941 28.8221 12.094 29.1964 12.2642 29.592C12.63 30.4513 12.8512 31.3915 12.8938 32.3784C12.898 32.4932 12.9023 32.6038 12.9023 32.7229C12.9023 32.9314 12.8938 33.1356 12.881 33.3355C12.8767 33.3398 12.8767 33.3398 12.881 33.344C12.932 34.3352 13.1915 35.2711 13.6169 36.1048C13.6595 36.1899 13.7063 36.2793 13.7573 36.3601C13.7616 36.3686 13.7658 36.3771 13.7701 36.3856C13.8977 36.6153 14.0423 36.8365 14.1955 37.0492C14.1997 37.0535 14.1997 37.0577 14.204 37.062C14.6847 37.7214 15.276 38.2914 15.9566 38.7466C16.2629 38.955 16.5947 39.1379 16.935 39.2911C17.5944 39.5931 18.309 39.7973 19.0577 39.8781C19.313 39.9079 19.5725 39.9206 19.832 39.9206C20.0915 39.9206 20.3552 39.9079 20.6104 39.8781C21.3549 39.7973 22.061 39.5974 22.7162 39.2953C23.065 39.1379 23.3968 38.955 23.7116 38.7466C24.3795 38.2956 24.9665 37.7341 25.4472 37.0833C25.4515 37.079 25.4557 37.0747 25.4557 37.0662C25.6174 36.845 25.7662 36.6196 25.8981 36.3814C25.9066 36.3728 25.9109 36.3643 25.9109 36.3558C25.9619 36.2707 26.0087 36.1814 26.0513 36.0963C26.4767 35.2583 26.7361 34.3224 26.7872 33.3313C26.7872 33.327 26.7872 33.3185 26.7872 33.3142C26.7744 33.1186 26.7659 32.9186 26.7659 32.7187C26.7659 32.6081 26.7702 32.506 26.7744 32.3996C26.8127 31.3915 27.0424 30.4301 27.421 29.5537C27.5869 29.1751 27.7784 28.8093 27.9996 28.4605C28.3952 27.8309 28.8759 27.2651 29.4289 26.7717C30.2925 25.9974 31.3304 25.4104 32.4747 25.0743C32.5726 25.0445 32.6704 25.019 32.7683 24.9935C33.3979 24.8318 34.0615 24.7468 34.7421 24.7468C34.942 24.7468 35.142 24.7553 35.3377 24.768H35.3419C35.3845 24.7723 35.4312 24.7765 35.4738 24.7808C35.4993 24.7808 35.5291 24.7765 35.5546 24.7723C35.8566 24.7298 36.0864 24.4745 36.0864 24.1597C36.0864 24.0917 36.0736 24.0236 36.0566 23.964C36.0183 23.896 35.9843 23.8322 35.946 23.7684C35.5546 23.0877 35.1079 22.4454 34.6017 21.8498C35.5206 21.9859 36.4097 22.2242 37.2562 22.5475C37.5285 22.6496 37.8007 22.7644 38.0644 22.8835C38.1027 22.9005 38.1453 22.9218 38.1836 22.9388C38.1878 22.9388 38.1921 22.9431 38.1963 22.9431C38.2559 22.9601 38.3154 22.9686 38.3792 22.9686C38.4048 22.9686 38.4345 22.9644 38.4601 22.9644C38.7664 22.9261 39.0003 22.6666 39.0003 22.3518C39.0003 22.288 38.9918 22.2242 38.9748 22.1689C38.626 21.0288 38.1283 19.9483 37.4944 18.9656C37.8092 18.9444 38.124 18.9316 38.4473 18.9316C38.626 18.9316 38.8004 18.9359 38.979 18.9444C39.0003 18.9486 39.0216 18.9486 39.0429 18.9486C39.0471 18.9486 39.0471 18.9486 39.0471 18.9486C39.3917 18.9444 39.6639 18.6721 39.6639 18.3275C39.6469 18.2552 39.6342 18.1786 39.6086 18.1106ZM10.218 10.5173C10.2691 10.6534 10.3286 10.7853 10.3839 10.9171C10.7242 11.6829 11.1709 12.389 11.6984 13.0186C12.5577 14.0523 13.6467 14.8861 14.8804 15.4519C14.9314 15.4731 14.9782 15.4944 15.0292 15.5199C15.0845 15.5412 15.1398 15.5625 15.1909 15.588C15.2249 15.6007 15.2505 15.6135 15.2845 15.6263C15.2887 15.6305 15.293 15.6305 15.293 15.6348C15.5695 15.7667 15.829 15.9241 16.0757 16.107C16.2671 16.2431 16.4416 16.392 16.6075 16.5579C16.6245 16.5664 16.6372 16.5834 16.65 16.6004C16.6543 16.6004 16.6543 16.6004 16.6543 16.6047C16.7819 16.7323 16.8967 16.8642 17.0073 17.0003C17.1052 17.1194 17.1988 17.247 17.2838 17.3789C17.3689 17.5065 17.4455 17.6341 17.5136 17.766C17.7007 18.1106 17.8454 18.4764 17.9432 18.8635C17.9517 18.9018 17.9645 18.9444 17.9687 18.9869C18.0411 19.3017 18.0878 19.6293 18.0921 19.9653C18.0964 19.9993 18.0964 20.0376 18.0964 20.0759C18.0964 20.0844 18.0964 20.0929 18.0964 20.1014C18.0964 20.1185 18.0964 20.1355 18.0921 20.1482C18.0964 20.2333 18.1176 20.3141 18.1559 20.3865C18.224 20.5311 18.3473 20.6459 18.5005 20.7013C18.543 20.714 18.5856 20.7225 18.6281 20.7353C19.0024 20.8246 19.3938 20.8714 19.7937 20.8714C20.1808 20.8714 20.5551 20.8289 20.9167 20.7395C20.9805 20.7268 21.0443 20.7098 21.1082 20.6927C21.1124 20.6927 21.1124 20.6885 21.1124 20.6885C21.2485 20.6289 21.3634 20.5226 21.4272 20.3865C21.4612 20.3141 21.4825 20.2333 21.4868 20.1482C21.4825 20.1312 21.4825 20.1142 21.4825 20.0972C21.4825 20.0887 21.4825 20.0802 21.4825 20.0717C21.4825 20.0674 21.4825 20.0632 21.4825 20.0546C21.4825 20.0291 21.4825 19.9993 21.4868 19.9738C21.4953 19.625 21.5378 19.2847 21.6186 18.9614C21.6271 18.9061 21.6442 18.8508 21.6569 18.7997C21.7548 18.4339 21.8951 18.0893 22.0696 17.766C22.1376 17.6341 22.2142 17.5108 22.295 17.3874C22.3843 17.2428 22.4864 17.1067 22.597 16.9748C22.6991 16.8472 22.814 16.7195 22.9331 16.6004C22.9331 16.5962 22.9374 16.5962 22.9374 16.5962C22.9586 16.5707 22.9842 16.5451 23.0097 16.5281C23.1756 16.3622 23.3585 16.2133 23.5499 16.0772C23.7839 15.907 24.0349 15.7581 24.2986 15.6348C24.3029 15.6305 24.3071 15.6305 24.3071 15.6263C24.3327 15.6135 24.3624 15.605 24.388 15.5922C24.4475 15.5667 24.5071 15.5369 24.5709 15.5114C24.6177 15.4901 24.6645 15.4731 24.7113 15.4476C25.9492 14.8818 27.0382 14.0438 27.9017 13.0101C28.4292 12.3805 28.8716 11.6743 29.2077 10.9129C29.2715 10.7768 29.3268 10.6406 29.3821 10.5045C29.7777 9.48781 29.9947 8.38178 29.9947 7.22045C29.9947 7.05454 29.9904 6.88864 29.9819 6.72273C30.1351 7.37784 30.2116 8.05848 30.2116 8.76038C30.2116 9.38997 30.1478 10.0068 30.0245 10.6023C30.0032 10.7002 29.9819 10.7938 29.9607 10.8874C29.8628 11.283 29.7437 11.6701 29.5991 12.0402C29.5097 12.2656 29.4161 12.4869 29.3098 12.6995C29.246 12.8612 29.1907 13.0271 29.1354 13.1973C28.9397 13.7971 28.8078 14.4224 28.744 15.0733C28.7227 15.2817 28.7057 15.4901 28.7015 15.7028C28.6972 15.8007 28.6972 15.8943 28.6972 15.9879C28.6972 16.6472 28.7695 17.2896 28.9014 17.9064C28.9057 17.9362 28.9142 17.9617 28.9184 17.9915C29.0035 18.3616 29.1099 18.7189 29.2332 19.0677C29.4076 19.5442 29.6161 20.0036 29.8628 20.4375C29.9649 20.6162 30.0713 20.7948 30.1819 20.965C30.1904 20.9735 30.1946 20.9778 30.1989 20.9863C30.2116 21.0033 30.2244 21.0246 30.2372 21.0416C30.2457 21.0501 30.2499 21.0586 30.2542 21.0671C30.2967 21.1564 30.3265 21.2543 30.3265 21.3564C30.3265 21.6031 30.1819 21.8158 29.9734 21.9136C29.9309 21.9349 29.8841 21.9519 29.8288 21.9647C29.8245 21.9647 29.8245 21.9647 29.8203 21.9689C29.7777 21.9817 29.7394 21.9945 29.7012 22.0115C29.4289 22.1008 29.1652 22.2072 28.9099 22.3263C28.71 22.4156 28.5143 22.5134 28.3229 22.6155C28.2633 22.6496 28.1953 22.6836 28.1357 22.7219C27.5401 23.0579 26.9829 23.4621 26.4724 23.9215C26.3448 24.0364 26.2214 24.1512 26.0981 24.2703C25.8854 24.483 25.6812 24.7085 25.4897 24.9382C25.2217 25.2658 24.975 25.6061 24.7538 25.9634C24.6049 26.2016 24.4645 26.4441 24.3369 26.6951C24.2221 26.9205 24.1115 27.1545 24.0179 27.3927C23.7116 28.1287 23.4989 28.9156 23.3883 29.7324C23.3798 29.7962 23.3713 29.86 23.3628 29.9238C23.3287 30.2003 23.3117 30.4769 23.3032 30.7619C23.3032 30.8044 23.3032 30.8512 23.3032 30.898C23.2777 31.7913 23.1245 32.6506 22.8565 33.4631C22.7842 33.6843 22.7034 33.9013 22.6141 34.114C22.2057 33.5525 21.6314 33.1228 20.9678 32.8889C20.7593 32.8123 20.5424 32.757 20.3169 32.7229C20.1893 32.7059 20.0617 32.6932 19.9341 32.6889C19.8915 32.6847 19.8447 32.6847 19.8022 32.6847C19.7767 32.6847 19.7469 32.6847 19.7171 32.6889C19.5895 32.6932 19.4619 32.7017 19.3343 32.7187C19.1045 32.7485 18.8833 32.7995 18.6664 32.8761C17.99 33.1058 17.403 33.544 16.9861 34.1055C16.8967 33.8885 16.8159 33.6673 16.7436 33.4461C16.4884 32.6634 16.3352 31.8339 16.3054 30.9746C16.3012 30.8767 16.2969 30.7789 16.2969 30.6768C16.2969 30.664 16.2969 30.6513 16.2969 30.6385C16.2884 30.396 16.2671 30.1536 16.2416 29.9196C16.2289 29.8303 16.2204 29.7367 16.2033 29.6473C16.0885 28.8689 15.8843 28.1202 15.5908 27.414C15.4929 27.1673 15.3823 26.9248 15.259 26.6908C15.1441 26.4696 15.025 26.2527 14.8931 26.04C14.6549 25.6571 14.3912 25.287 14.1061 24.9382C13.9232 24.717 13.7275 24.5043 13.5276 24.3001C13.4042 24.1725 13.2766 24.0576 13.149 23.9385C12.6428 23.4791 12.0855 23.0707 11.4857 22.7304C11.4134 22.6879 11.3411 22.6496 11.273 22.6113C11.0858 22.5092 10.8901 22.4156 10.6945 22.3263C10.4222 22.1986 10.1414 22.088 9.85217 21.9902C9.82665 21.9817 9.80113 21.9732 9.7756 21.9647C9.77135 21.9604 9.76709 21.9604 9.76709 21.9604C9.72456 21.9434 9.67776 21.9264 9.63097 21.9136C9.62671 21.9136 9.62671 21.9094 9.62246 21.9094C9.41402 21.8115 9.27364 21.5988 9.27364 21.3521C9.27364 21.2458 9.29916 21.1437 9.34595 21.0543L9.3417 21.0501C9.47783 20.8459 9.60544 20.6417 9.72456 20.429C9.97129 19.9951 10.184 19.5357 10.3541 19.0592C10.486 18.7019 10.5924 18.3318 10.6774 17.9532C10.6817 17.9404 10.6817 17.9277 10.686 17.9149C10.8221 17.2896 10.8944 16.643 10.8944 15.9794C10.8944 15.8815 10.8901 15.7879 10.8901 15.6901C10.8816 15.4561 10.8689 15.2221 10.8391 14.9967C10.771 14.3756 10.6434 13.7715 10.4562 13.1973C10.4009 13.0186 10.3371 12.8442 10.2691 12.674C10.2648 12.6698 10.2648 12.6698 10.2648 12.6655C10.1712 12.4698 10.0861 12.2699 10.0053 12.07C10.0053 12.0657 10.0011 12.0657 10.0011 12.0615C9.85217 11.6829 9.72881 11.2915 9.63097 10.8831C9.6097 10.7895 9.58843 10.7002 9.56716 10.6023C9.44379 10.0068 9.37998 9.38571 9.37998 8.75187C9.37998 8.04997 9.46081 7.36508 9.6097 6.71422C9.60119 6.88013 9.59694 7.04603 9.59694 7.21194C9.60119 8.39028 9.81814 9.50057 10.218 10.5173ZM29.9819 6.64616C29.9862 6.67168 29.9862 6.70146 29.9862 6.73124C29.9777 6.69721 29.9734 6.67168 29.9649 6.64191V6.63765C29.9692 6.63765 29.9777 6.64191 29.9819 6.64616Z" fill="black"/>
<path id="Vector_2" d="M22.6992 24.7128C22.8055 24.866 22.9799 24.9681 23.1841 24.9681C23.367 24.9681 23.5287 24.883 23.635 24.7554C23.6393 24.7511 23.6393 24.7511 23.6393 24.7511C23.6606 24.7128 23.6818 24.6788 23.7073 24.6405C23.7712 24.5427 23.835 24.4448 23.903 24.3512C24.0519 24.1385 24.2093 23.9301 24.3752 23.7301C24.4646 23.6195 24.5539 23.5175 24.6475 23.4111C24.6517 23.4111 24.6517 23.4068 24.6517 23.4068C24.7623 23.2877 24.8729 23.1686 24.992 23.0538C25.1792 22.8708 25.3706 22.6922 25.5748 22.522C25.6216 22.4837 25.6684 22.4412 25.7152 22.4072C25.7578 22.3689 25.8003 22.3348 25.8471 22.3008C25.8811 22.2753 25.9109 22.2498 25.9449 22.2285C25.9492 22.2242 25.9534 22.22 25.9577 22.2157C26.0683 22.1094 26.1321 21.9648 26.1321 21.8031C26.1321 21.7478 26.1236 21.6925 26.1108 21.6415C26.0555 21.4373 25.8896 21.2799 25.6854 21.2331C25.6429 21.2288 25.5961 21.2203 25.5493 21.2161C25.5493 21.2161 25.5493 21.2161 25.5451 21.2161C25.4642 21.2075 25.3877 21.199 25.3068 21.1948C25.209 21.1863 25.1112 21.1863 25.0091 21.1863C24.941 21.1863 24.8729 21.1905 24.8049 21.1905C24.6943 21.1948 24.5837 21.2033 24.4773 21.2161C24.0009 21.2714 23.5457 21.399 23.1246 21.5947C23.0565 21.6244 22.9927 21.6542 22.9331 21.6882C22.797 21.7691 22.6736 21.8797 22.58 22.0073C22.5673 22.0243 22.5545 22.0413 22.5418 22.0541C22.4312 22.2157 22.3588 22.4072 22.3333 22.6156C22.3291 22.6709 22.3248 22.722 22.3248 22.7773C22.3248 22.8028 22.3291 22.8283 22.3291 22.8538C22.3248 22.8496 22.3248 22.8496 22.3248 22.8453C22.3206 22.8794 22.3206 22.9049 22.3206 22.9389C22.3206 23.5302 22.4354 24.096 22.6396 24.615C22.6566 24.6448 22.6779 24.6788 22.6992 24.7128Z" fill="black"/>
<path id="Vector_3" d="M13.6552 22.2241C13.6808 22.2496 13.7148 22.2752 13.7446 22.2922C13.8041 22.3347 13.8637 22.3815 13.919 22.4325C13.9615 22.4666 14.0083 22.5049 14.0509 22.5432C14.2593 22.7176 14.4592 22.9047 14.6464 23.0962C14.7485 23.1983 14.8506 23.3004 14.9442 23.4067C14.9442 23.4067 14.9442 23.411 14.9484 23.411C15.042 23.5131 15.1314 23.6194 15.2207 23.73C15.3866 23.9299 15.5482 24.1384 15.6929 24.3511C15.7609 24.4489 15.829 24.5468 15.8928 24.6446C15.9141 24.6829 15.9396 24.7169 15.9609 24.7552L15.9651 24.7595C16.0757 24.8913 16.2331 24.9722 16.4161 24.9722C16.6458 24.9722 16.8457 24.8403 16.9393 24.6446C16.9478 24.6361 16.9521 24.6233 16.9563 24.6106C16.9648 24.5936 16.9691 24.5765 16.9776 24.5553C17.1733 24.0533 17.2796 23.5088 17.2796 22.9345C17.2796 22.9047 17.2796 22.875 17.2754 22.8452C17.2711 22.8494 17.2711 22.8537 17.2711 22.8537C17.2754 22.8282 17.2754 22.7984 17.2754 22.7729C17.2711 22.7176 17.2711 22.6623 17.2668 22.6112C17.2456 22.407 17.169 22.2199 17.0627 22.0582C17.0584 22.0539 17.0584 22.0497 17.0541 22.0497C16.9521 21.9051 16.8202 21.7774 16.667 21.6881C16.6032 21.6541 16.5394 21.62 16.4756 21.5945C16.0672 21.4073 15.6291 21.2797 15.1654 21.2202C15.059 21.2074 14.9527 21.1946 14.8421 21.1861C14.7613 21.1819 14.6762 21.1819 14.5911 21.1819C14.506 21.1819 14.4209 21.1861 14.3401 21.1904C14.2423 21.1946 14.1487 21.2032 14.0509 21.2159C14.0041 21.2202 13.953 21.2287 13.9062 21.2372C13.902 21.2372 13.902 21.2372 13.8977 21.2372C13.6978 21.2882 13.5361 21.4456 13.4851 21.6456C13.4723 21.6966 13.4638 21.7477 13.4638 21.803C13.4638 21.9646 13.5319 22.1092 13.6382 22.2156C13.6467 22.2156 13.651 22.2199 13.6552 22.2241Z" fill="black"/>
</g>
<g id="brendly">
<path id="Vector_4" d="M65.8216 18.4679C64.6219 17.5533 63.618 16.3877 62.8948 15.069C62.0653 13.5503 61.6101 11.8275 61.5846 10.0876V10.0834V4.01721V3.98743V3.80451C61.5889 3.74921 61.5846 3.69391 61.5846 3.64712C61.5846 2.68572 61.2145 1.78388 60.5381 1.10325C59.8618 0.422614 58.9642 0.0440119 58.0028 0.03125H54.3486V4.10229H55.5908C56.3693 4.10229 57.0031 4.73613 57.0031 5.51461V13.3249C57.1648 15.2817 58.275 17.0471 59.9724 18.0468L60.5679 18.3956L59.9809 18.7487C58.2793 19.7484 57.1733 21.5095 57.0116 23.4663V34.5479C57.0116 35.3264 56.3778 35.9602 55.5993 35.9602H54.3571V40.0312H57.7986H57.8369H58.0113C58.9684 40.0227 59.8703 39.6399 60.5467 38.9593C61.223 38.2786 61.5931 37.3725 61.5931 36.4154C61.5931 36.3686 61.5974 36.3133 61.5931 36.258V36.0751V36.0453V27.8054C61.6442 24.2363 63.1799 20.8586 65.8216 18.4679Z" fill="black"/>
<path id="Vector_5" d="M60.4701 40.0312H74.4529C77.6731 40.0312 80.7019 38.8189 82.9778 36.5387C85.2537 34.2629 86.5086 31.2341 86.5086 28.0138C86.5086 25.7252 85.8662 23.5004 84.6496 21.5776C83.5181 19.7909 81.9441 18.336 80.0809 17.3491C79.128 18.3445 78.0134 19.1358 76.7585 19.7058C75.3632 20.3397 73.8701 20.6587 72.3259 20.6587C70.2457 20.6587 68.2421 20.0674 66.5065 18.9486C63.9456 21.1947 62.4524 24.4064 62.4014 27.8139V36.3643C62.4014 36.3813 62.4014 36.3941 62.4014 36.4111C62.4014 37.5852 61.9462 38.6955 61.1167 39.5293C60.9168 39.7335 60.6998 39.8738 60.4701 40.0312Z" fill="black"/>
<path id="Vector_6" d="M64.2434 15.6858L64.2646 15.7114C64.3072 15.7709 64.3497 15.8305 64.3965 15.89C64.405 15.9028 64.4135 15.9113 64.422 15.9241L64.4433 15.9496C64.4858 16.0049 64.5326 16.0644 64.5752 16.1197C64.5837 16.1325 64.5922 16.141 64.6049 16.1538L64.6305 16.1835C64.673 16.2346 64.7156 16.2899 64.7623 16.3409C64.7751 16.3537 64.7879 16.3665 64.7964 16.3835L64.8304 16.4218C64.8729 16.4686 64.9112 16.5154 64.9538 16.5621C64.9665 16.5749 64.9793 16.5919 64.9921 16.6047L65.0346 16.6515C65.0729 16.694 65.1112 16.7366 65.1495 16.7748C65.1665 16.7919 65.1792 16.8046 65.1962 16.8216L65.2473 16.8727C65.2813 16.911 65.3196 16.945 65.3536 16.9833C65.3707 17.0003 65.3877 17.0173 65.4089 17.0343L65.4728 17.0939C65.5025 17.1237 65.5366 17.1534 65.5663 17.1832C65.5876 17.2002 65.6046 17.2215 65.6259 17.2385L65.6982 17.3023C65.728 17.3279 65.7535 17.3534 65.7833 17.3789C65.8088 17.4002 65.8301 17.4214 65.8556 17.4427L65.9279 17.5065C65.9535 17.5278 65.979 17.5491 66.0045 17.5703C66.0343 17.5959 66.0641 17.6171 66.0938 17.6427L66.1704 17.7022C66.1917 17.7192 66.2129 17.7362 66.2342 17.7533C66.2725 17.783 66.3108 17.8128 66.3491 17.8426L66.3831 17.8681C66.3959 17.8766 66.4086 17.8894 66.4214 17.8979C66.4341 17.9064 66.4469 17.9192 66.4597 17.9277C67.5317 17.0769 68.7185 16.409 69.9947 15.9368C71.4198 15.4093 72.9214 15.1413 74.4529 15.1413C76.3544 15.1413 78.1836 15.5454 79.8894 16.3452C81.4166 14.55 82.2504 12.2827 82.2504 9.91746C82.2504 7.26724 81.2167 4.77016 79.3407 2.89842C77.4732 1.02242 74.9804 0.03125 72.3259 0.03125H60.4701C60.6998 0.188647 60.9168 0.329027 61.1167 0.528963C61.9462 1.36274 62.4014 2.47302 62.4014 3.64712C62.4014 3.66413 62.4014 3.67689 62.4014 3.69391V10.0749C62.4142 10.8916 62.5248 11.6999 62.7332 12.4783V12.4868C62.7587 12.5804 62.7843 12.6783 62.814 12.7719V12.7761C62.8396 12.8697 62.8693 12.9633 62.9034 13.0526V13.0569C62.9331 13.1505 62.9672 13.2441 63.0012 13.3334L63.0055 13.3419C63.0395 13.4312 63.0735 13.5206 63.1076 13.6056L63.1118 13.6227C63.1458 13.7077 63.1841 13.7971 63.2182 13.8779L63.2267 13.8992C63.265 13.9842 63.3032 14.0651 63.3373 14.1459L63.35 14.1714C63.3926 14.2565 63.4266 14.3331 63.4691 14.4096L63.4819 14.4394C63.5244 14.5202 63.5627 14.5968 63.6053 14.6691L63.6265 14.7032C63.6733 14.784 63.7116 14.8563 63.7499 14.9244L63.7754 14.9627C63.8222 15.0435 63.8648 15.1115 63.903 15.1711L63.9328 15.2136C63.9839 15.2902 64.0222 15.354 64.0647 15.4136C64.0689 15.4221 64.0775 15.4306 64.0817 15.4391L64.0987 15.4646C64.1498 15.5412 64.1923 15.6007 64.2306 15.656C64.2306 15.6688 64.2391 15.6773 64.2434 15.6858Z" fill="black"/>
</g>
</g>
<defs>
<clipPath id="clip0_10_320">
<rect width="86.5086" height="40" fill="white" transform="translate(0 0.03125)"/>
</clipPath>
</defs>
</svg>
