<svg width="100" height="41" viewBox="0 0 100 41" fill="none" xmlns="http://www.w3.org/2000/svg">
<g clip-path="url(#clip0_10_335)">
<path opacity="0.25" d="M39.3514 39.9493C39.3413 39.9493 39.3263 39.9493 39.3163 39.9493L20.274 39.7877C19.5015 39.7787 18.744 39.5677 18.0869 39.1682C16.8178 38.4006 14.4149 36.9507 12.8247 35.9901C12.0171 35.5008 11.0088 35.42 10.1309 35.7701L1.32715 39.276C1.03118 39.3927 0.690065 39.2715 0.534557 38.9932C0.379049 38.7149 0.459312 38.3602 0.715148 38.1717L8.22468 32.7132C9.09753 32.0758 9.56907 31.0164 9.45871 29.9391L8.54072 21.1948C8.39022 19.7808 8.94704 18.3892 10.0306 17.469L22.5214 6.82591C23.1535 6.28724 23.926 5.9416 24.7537 5.83387L50.1115 2.5121C50.3122 2.48517 50.5179 2.4717 50.7235 2.47619L86.6158 2.9161C87.6943 2.92957 88.7227 3.34255 89.5103 4.07872L95.8409 10.0175C96.6084 10.7357 97.085 11.7098 97.1803 12.7557L97.9729 21.1948C98.0983 22.528 97.6067 23.8208 96.6335 24.7365L87.9502 32.8748C87.4134 33.3776 86.7512 33.7367 86.0389 33.9118L76.262 36.3313C76.1265 36.3672 75.9861 36.3941 75.8456 36.4121C74.1651 36.6545 61.1827 38.5398 59.6025 38.7687C59.4872 38.7867 59.3618 38.8001 59.2313 38.8046L50.3724 39.3164C45.5566 39.5947 40.445 39.8864 39.6022 39.9358C39.5169 39.9448 39.4367 39.9493 39.3514 39.9493ZM11.2546 34.2843C12.0321 34.2843 12.8097 34.4908 13.4819 34.9038C15.067 35.8644 17.4699 37.3143 18.7441 38.0819C19.2106 38.3647 19.7423 38.5129 20.2891 38.5173L39.3263 38.6789C39.3915 38.6789 39.4617 38.6789 39.527 38.6744C40.3697 38.6251 45.4814 38.3333 50.2971 38.055L59.1561 37.5433C59.2464 37.5388 59.3367 37.5298 59.4169 37.5163C60.9971 37.2874 73.9845 35.4021 75.665 35.1597C75.7653 35.1462 75.8607 35.1282 75.956 35.1013L85.7329 32.6818C86.2346 32.5561 86.7011 32.3047 87.0823 31.9501L95.7607 23.8118C96.4479 23.1654 96.7941 22.2542 96.7088 21.316L95.9162 12.8769C95.8459 12.1362 95.5098 11.4539 94.9681 10.9467L88.6374 5.00343C88.0806 4.48272 87.3582 4.19094 86.5957 4.18196L50.7035 3.74205C50.558 3.74205 50.4125 3.75103 50.2721 3.76899L24.9142 7.09075C24.3323 7.16706 23.7855 7.40946 23.3391 7.79102L10.8483 18.4341C10.0858 19.085 9.69448 20.0681 9.79983 21.0601L10.7178 29.8044C10.8784 31.3307 10.2062 32.8344 8.96711 33.7367L5.55095 36.219L9.65937 34.5851C10.171 34.3876 10.7128 34.2843 11.2546 34.2843Z" fill="black"/>
<path d="M40.6306 37.6555C40.6205 37.6555 40.6055 37.6555 40.5954 37.6555L21.5532 37.4939C20.7807 37.4849 20.0232 37.2739 19.3661 36.8744C18.0969 36.1068 15.6941 34.6569 14.1039 33.6963C13.2962 33.207 12.288 33.1262 11.4101 33.4764L2.60632 36.9822C2.31035 37.0989 1.96924 36.9777 1.81373 36.6994C1.65822 36.4211 1.73849 36.0664 1.99432 35.8779L9.50887 30.4239C10.3817 29.7865 10.8533 28.7271 10.7429 27.6498L9.82491 18.9055C9.67441 17.4915 10.2312 16.0999 11.3148 15.1797L23.8056 4.5366C24.4376 3.99794 25.2102 3.6523 26.0379 3.54456L51.3957 0.222797C51.5964 0.195864 51.8021 0.182397 52.0077 0.186886L87.9 0.626795C88.9785 0.640262 90.0069 1.05324 90.7944 1.78941L97.1251 7.72819C97.8926 8.44641 98.3692 9.42049 98.4645 10.4664L99.2571 18.9055C99.3825 20.2387 98.8909 21.5315 97.9177 22.4472L89.2344 30.5855C88.6976 31.0883 88.0354 31.4474 87.3231 31.6224L77.5462 34.042C77.4107 34.0779 77.2703 34.1048 77.1298 34.1227C75.4493 34.3652 62.4669 36.2505 60.8867 36.4794C60.7714 36.4974 60.646 36.5108 60.5155 36.5153L51.6566 37.0271C46.8408 37.3054 41.7291 37.5971 40.8814 37.6465C40.8011 37.6555 40.7158 37.6555 40.6306 37.6555ZM12.5338 31.995C13.3113 31.995 14.0888 32.2015 14.761 32.6145C16.3462 33.5751 18.7491 35.025 20.0232 35.7926C20.4897 36.0754 21.0215 36.2235 21.5683 36.228L40.6055 36.3896C40.6707 36.3896 40.7409 36.3896 40.8061 36.3851C41.6489 36.3358 46.7606 36.044 51.5763 35.7657L60.4353 35.2539C60.5256 35.2495 60.6158 35.2405 60.6961 35.227C62.2763 34.9981 75.2637 33.1128 76.9442 32.8704C77.0445 32.8569 77.1398 32.8389 77.2351 32.812L87.0121 30.3925C87.5137 30.2668 87.9803 30.0154 88.3615 29.6608L97.0449 21.5225C97.7321 20.8761 98.0782 19.9648 97.993 19.0267L97.2004 10.5876C97.1301 9.85143 96.7941 9.16463 96.2523 8.65739L89.9216 2.71861C89.3648 2.1979 88.6424 1.90612 87.8799 1.89715L51.9877 1.45724C51.8422 1.45724 51.6967 1.46621 51.5563 1.48417L26.1984 4.80593C25.6165 4.88224 25.0697 5.12464 24.6233 5.5062L12.1324 16.1493C11.37 16.8002 10.9787 17.7833 11.084 18.7753L12.002 27.5196C12.1625 29.0458 11.4903 30.5496 10.2513 31.4519L6.83514 33.9342L10.9436 32.3003C11.4552 32.0938 11.992 31.995 12.5338 31.995Z" fill="black"/>
<mask id="mask0_10_335" style="mask-type:luminance" maskUnits="userSpaceOnUse" x="24" y="10" width="63" height="19">
<path d="M25.2775 19.3811L24.4914 17.2291C25.2394 16.9929 26.0648 16.6644 26.905 16.5055C27.7378 16.2618 28.6628 16.0954 29.5804 15.8443C30.5053 15.678 31.4303 15.5117 32.3553 15.3453C32.2409 15.0137 32.1265 14.6821 32.0194 14.4352C31.9124 14.1883 31.8054 13.9414 31.7058 13.7793L34.0718 13.4869C34.1714 13.649 34.271 13.8111 34.3854 14.1428C34.4924 14.3896 34.6068 14.7213 34.6291 14.9756L34.9681 14.9459C35.6462 14.8866 36.2396 14.8347 36.8404 14.8675C37.4337 14.8156 37.8649 14.8633 38.2962 14.911L38.2347 17.1371C37.3722 17.0417 36.3477 17.046 34.9914 17.1646C35.0211 17.5037 35.0434 17.758 35.0656 18.0122C35.1175 18.6056 35.0921 19.2911 35.0592 19.8918C35.3432 20.2086 35.5498 20.6176 35.7564 21.0266C35.963 21.4356 36.0149 22.029 36.0594 22.5375C36.1261 23.3004 36.0233 24.0781 35.8284 24.7785C35.5487 25.4863 35.2615 26.1093 34.7974 26.6623C34.3333 27.2154 33.7697 27.6064 33.1212 28.0048L30.8835 26.8339C31.6241 26.5129 32.2726 26.1145 32.6667 25.7384C33.1382 25.2701 33.4476 24.9013 33.6648 24.4553C33.882 24.0092 34.0145 23.5706 34.0696 23.2241C33.7676 23.6776 33.366 23.969 32.9645 24.2603C32.5629 24.5517 31.977 24.6884 31.3836 24.7403C30.7055 24.7996 30.1821 24.6746 29.6513 24.4648C29.1204 24.255 28.6669 23.953 28.3682 23.4667C27.992 23.0725 27.8628 22.5714 27.8109 21.978C27.796 21.8085 27.7738 21.5542 27.8363 21.2925C27.8988 21.0308 27.9539 20.6843 28.0164 20.4226C28.1563 20.0687 28.3036 19.7996 28.6204 19.5156C28.8524 19.2391 29.254 18.9478 29.663 18.7411C30.072 18.5345 30.6579 18.3979 31.336 18.3385C31.675 18.3089 31.9293 18.2866 32.2758 18.3417C32.5375 18.4042 32.8766 18.3746 33.1383 18.4371L33.1234 18.2676C33.0938 17.9285 33.0641 17.5894 33.0345 17.2504C32.1095 17.4167 31.1845 17.5831 30.2595 17.7494C29.3345 17.9157 28.417 18.1668 27.5842 18.4105C26.5967 18.8386 25.856 19.1596 25.2775 19.3811ZM30.0295 21.9547C30.0592 22.2938 30.1662 22.5406 30.4279 22.6032C30.6896 22.6657 30.8666 22.7356 31.1209 22.7134C31.6295 22.6689 32.0384 22.4623 32.2705 22.1857C32.5873 21.9018 32.7197 21.4631 32.8522 21.0245C32.583 20.8772 32.3139 20.7299 32.0596 20.7522C31.7979 20.6896 31.5436 20.7119 31.2894 20.7342C30.8655 20.7712 30.6187 20.8782 30.3018 21.1622C30.1472 21.3465 29.9999 21.6157 30.0295 21.9547ZM53.97 13.4543C53.8778 13.3769 53.6934 13.2222 53.5938 13.0601C53.4095 12.9054 53.2251 12.7507 53.1181 12.5039C52.9263 12.2644 52.8268 12.1023 52.7346 12.025L53.5303 11.3574C53.6299 11.5196 53.8217 11.759 54.0982 11.991C54.29 12.2305 54.5665 12.4625 54.7509 12.6172L53.97 13.4543ZM52.2122 13.8643C52.12 13.7869 52.0204 13.6249 51.8286 13.3854C51.6369 13.1459 51.5373 12.9838 51.3455 12.7444C51.2385 12.4975 51.1389 12.3354 51.0393 12.1733L52.0194 11.6605C52.1264 11.9073 52.2334 12.1542 52.4252 12.3936C52.617 12.6331 52.8087 12.8726 53.0005 13.112L52.2122 13.8643ZM51.6093 16.7356C51.0785 16.5258 50.555 16.4009 49.9469 16.2832C49.3387 16.1656 48.6532 16.1402 47.9677 16.1147C47.2821 16.0893 46.604 16.1486 45.9259 16.208C45.3326 16.2599 44.824 16.3044 44.2381 16.441C43.7369 16.5703 43.2283 16.6148 42.7346 16.8288L42.2652 14.3929C42.9285 14.1641 43.5992 14.02 44.1851 13.8833C44.8558 13.7392 45.4492 13.6873 46.0425 13.6354C47.1444 13.539 48.2537 13.5273 49.2932 13.6926C50.3326 13.8579 51.2025 14.0381 52.0024 14.3952L51.6093 16.7356ZM54.0419 24.0391C53.0618 24.5519 52.0743 24.9799 50.9947 25.3306C49.915 25.6813 48.9052 25.8551 47.9728 25.9367C46.9557 26.0257 45.9237 25.9451 45.0538 25.765C44.1839 25.5849 43.4613 25.1356 42.9008 24.5868C42.3404 24.0379 42.0119 23.2125 41.9229 22.1954L41.9081 22.0258L44.0526 21.1549L44.0674 21.3245C44.1193 21.9178 44.3259 22.3268 44.6099 22.6436C44.8938 22.9604 45.3399 23.1776 45.8633 23.3026C46.3867 23.4277 46.9027 23.4679 47.4961 23.416C48.1742 23.3567 48.7601 23.22 49.5156 23.0685C50.1788 22.8397 50.8421 22.6108 51.5054 22.382C52.1687 22.1531 52.655 21.8543 53.1413 21.5556L54.0419 24.0391ZM63.1169 19.4016C62.8404 19.1696 62.5639 18.9375 62.2873 18.7055C62.0108 18.4734 61.7417 18.3261 61.5573 18.1714C61.2882 18.0242 61.1112 17.9542 60.857 17.9765C60.6027 17.9987 60.4406 18.0983 60.2933 18.3675C60.1386 18.5518 59.914 18.9131 59.7741 19.267C59.6342 19.6209 59.4096 19.9822 59.2771 20.4208L56.5531 19.5488C56.9028 18.6641 57.2747 18.0336 57.654 17.488C58.0333 16.9423 58.3353 16.4889 58.6521 16.2049C58.9689 15.921 59.3779 15.7143 59.7095 15.5999C60.0411 15.4855 60.4575 15.3637 60.7966 15.334C61.3052 15.2895 61.7364 15.3372 62.0903 15.477C62.529 15.6095 62.8902 15.8341 63.1668 16.0662C63.5281 16.2908 63.8046 16.5228 64.0811 16.7549C64.2655 16.9096 64.5346 17.0568 64.7264 17.2963C64.9108 17.451 65.1799 17.5983 65.3643 17.753C65.6334 17.9003 65.8029 17.8854 66.0572 17.8632C66.3115 17.8409 66.4736 17.7413 66.713 17.5495C66.8677 17.3652 67.0224 17.1809 67.085 16.9191C67.1475 16.6574 67.3022 16.473 67.3647 16.2113L70.1735 17.076C69.257 19.2915 67.9898 20.4273 66.3793 20.5682C65.7859 20.6201 65.2625 20.495 64.7317 20.2852C64.2009 20.0755 63.6626 19.7809 63.1169 19.4016ZM78.1338 23.1271C77.5405 23.179 76.9323 23.0614 76.394 22.7669C75.8558 22.4723 75.3027 22.0082 74.827 21.4519C74.3513 20.8957 73.9529 20.2472 73.5471 19.514C73.1413 18.7808 72.8128 17.9554 72.5617 17.0378C72.3106 16.1203 72.0669 15.2875 71.8158 14.3699C71.6495 13.445 71.4832 12.52 71.409 11.6723L73.8375 11.1182C73.9487 12.3897 74.2221 13.5615 74.4954 14.7334C74.7688 15.9052 75.1121 16.9002 75.4405 17.7255C75.7764 18.6357 76.1748 19.2841 76.6431 19.7556C77.0266 20.2346 77.4727 20.4517 77.8117 20.4221C78.1508 20.3924 78.4676 20.1085 78.7696 19.655C79.0715 19.2015 79.3512 18.4937 79.5388 17.7086L81.2944 20.2028C80.9522 21.1723 80.5029 21.8949 79.9467 22.3706C79.5525 22.7467 78.8967 23.0603 78.1338 23.1271ZM84.7051 16.2317C84.4286 15.9997 84.1521 15.7676 83.7908 15.543C83.4221 15.2336 83.0533 14.9242 82.5999 14.6222C82.1464 14.3202 81.6929 14.0182 81.1547 13.7237C80.6164 13.4291 80.1703 13.2119 79.6395 13.0021L81.0794 10.9117C81.5255 11.1289 81.9716 11.3461 82.4176 11.5633C82.8711 11.8653 83.4094 12.1599 83.8628 12.4618C84.3163 12.7638 84.7698 13.0657 85.1385 13.3751C85.5072 13.6845 85.8685 13.9092 86.1451 14.1412L84.7051 16.2317Z" fill="white"/>
</mask>
<g mask="url(#mask0_10_335)">
<path opacity="0.25" d="M25.2775 19.3811L24.4913 17.2291C25.2394 16.9929 26.0648 16.6644 26.905 16.5055C27.7378 16.2618 28.6628 16.0954 29.5803 15.8443C30.5053 15.678 31.4303 15.5117 32.3553 15.3453C32.2408 15.0137 32.1264 14.6821 32.0194 14.4352C31.9124 14.1883 31.8054 13.9414 31.7058 13.7793L34.0718 13.4869C34.1714 13.649 34.2709 13.8111 34.3854 14.1428C34.4924 14.3897 34.6068 14.7213 34.6291 14.9756C34.7138 14.9682 34.8833 14.9533 34.9681 14.9459C35.6462 14.8866 36.2396 14.8347 36.8403 14.8676C37.4337 14.8156 37.8649 14.8633 38.2961 14.911L38.2347 17.1371C37.3722 17.0417 36.3476 17.046 34.9914 17.1646C35.0211 17.5037 35.0433 17.758 35.0656 18.0123C35.1175 18.6056 35.092 19.2911 35.0592 19.8918C35.3431 20.2087 35.5498 20.6177 35.7564 21.0266C35.963 21.4356 36.0149 22.029 36.0594 22.5375C36.1261 23.3004 36.0233 24.0781 35.8284 24.7785C35.5486 25.4863 35.2615 26.1093 34.7974 26.6623C34.3333 27.2154 33.7696 27.6064 33.1212 28.0048L30.8834 26.8339C31.6241 26.5129 32.2725 26.1145 32.6667 25.7384C33.1382 25.2701 33.4476 24.9014 33.6648 24.4553C33.882 24.0092 34.0144 23.5706 34.0695 23.2241C33.7676 23.6776 33.366 23.969 32.9644 24.2603C32.5629 24.5517 31.9769 24.6884 31.3836 24.7403C30.7055 24.7996 30.1821 24.6746 29.6512 24.4648C29.1204 24.255 28.6669 23.953 28.3681 23.4667C27.992 23.0725 27.8627 22.5714 27.8108 21.978C27.796 21.8085 27.7738 21.5542 27.8363 21.2925C27.8988 21.0308 27.9539 20.6843 28.0164 20.4226C28.1563 20.0687 28.3035 19.7996 28.6204 19.5157C28.8524 19.2391 29.254 18.9478 29.6629 18.7412C30.0719 18.5346 30.6579 18.3979 31.336 18.3386C31.675 18.3089 31.9293 18.2866 32.2758 18.3417C32.5375 18.4042 32.8765 18.3746 33.1382 18.4371C33.1308 18.3523 33.1308 18.3523 33.1234 18.2676C33.0938 17.9285 33.0641 17.5895 33.0344 17.2504C32.1094 17.4167 31.1845 17.5831 30.2595 17.7494C29.3345 17.9157 28.4169 18.1668 27.5841 18.4105C26.5966 18.8386 25.856 19.1596 25.2775 19.3811ZM30.0295 21.9547C30.0592 22.2938 30.1662 22.5407 30.4279 22.6032C30.6896 22.6657 30.8666 22.7356 31.1208 22.7134C31.6294 22.6689 32.0384 22.4623 32.2704 22.1857C32.5873 21.9018 32.7197 21.4632 32.8521 21.0245C32.583 20.8772 32.3139 20.7299 32.0596 20.7522C31.7979 20.6897 31.5436 20.7119 31.2893 20.7342C30.8655 20.7713 30.6186 20.8782 30.3018 21.1622C30.1471 21.3465 29.9998 21.6157 30.0295 21.9547Z" fill="black"/>
<path opacity="0.25" d="M54.0419 24.0392C53.0619 24.552 52.0744 24.98 50.9947 25.3307C49.915 25.6814 48.9053 25.8552 47.8881 25.9442C46.8709 26.0332 45.839 25.9526 44.9691 25.7725C44.0992 25.5924 43.3766 25.1431 42.8161 24.5943C42.2556 24.0454 41.9272 23.22 41.8382 22.2029L41.8233 22.0333L43.9678 21.1624L43.9827 21.332C44.0346 21.9253 44.2412 22.3343 44.5251 22.6511C44.8091 22.9679 45.2552 23.1851 45.7786 23.3101C46.302 23.4352 46.818 23.4754 47.4113 23.4235C48.0895 23.3642 48.6754 23.2275 49.4308 23.076C50.0941 22.8472 50.7574 22.6183 51.4207 22.3895C52.0839 22.1606 52.5703 21.8618 53.0566 21.5631L54.0419 24.0392ZM51.6093 16.7357C51.0785 16.5259 50.5551 16.4009 49.9469 16.2833C49.3387 16.1657 48.6532 16.1402 47.9677 16.1148C47.2822 16.0894 46.6041 16.1487 45.926 16.208C45.3326 16.26 44.824 16.3044 44.2381 16.4411C43.7369 16.5704 43.2283 16.6149 42.7346 16.8289L42.2652 14.393C42.9285 14.1642 43.5992 14.0201 44.1851 13.8834C44.8558 13.7393 45.4492 13.6874 46.0425 13.6355C47.1444 13.5391 48.2538 13.5274 49.2932 13.6927C50.3326 13.858 51.2025 14.0382 52.0024 14.3952L51.6093 16.7357ZM52.2122 13.8644C52.1201 13.787 52.0204 13.6249 51.8287 13.3855C51.6369 13.146 51.5373 12.9839 51.3455 12.7445C51.2385 12.4976 51.1389 12.3355 51.0393 12.1734L52.0194 11.6606C52.1264 11.9074 52.2334 12.1543 52.4252 12.3937C52.617 12.6332 52.8088 12.8727 53.0005 13.1121L52.2122 13.8644ZM53.97 13.4544C53.8778 13.377 53.6935 13.2223 53.5939 13.0602C53.4095 12.9055 53.2252 12.7508 53.1181 12.5039C52.9264 12.2645 52.8268 12.1024 52.7346 12.025L53.5303 11.3575C53.6299 11.5196 53.8217 11.7591 54.0982 11.9911C54.29 12.2306 54.5665 12.4626 54.7509 12.6173L53.97 13.4544Z" fill="black"/>
<path opacity="0.25" d="M63.1169 19.4015C62.8404 19.1695 62.5639 18.9374 62.2873 18.7054C62.0108 18.4733 61.7417 18.326 61.5573 18.1713C61.2882 18.0241 61.1112 17.9541 60.8569 17.9764C60.6026 17.9986 60.4406 18.0983 60.2933 18.3674C60.1386 18.5517 59.9139 18.913 59.7741 19.2669C59.6342 19.6208 59.4096 19.9821 59.2771 20.4208L56.5531 19.5487C56.9027 18.664 57.2746 18.0336 57.654 17.4879C58.0333 16.9422 58.3352 16.4888 58.6521 16.2048C58.9689 15.9209 59.3778 15.7142 59.7095 15.5998C60.0411 15.4854 60.4575 15.3636 60.7966 15.3339C61.3052 15.2894 61.7364 15.3371 62.0903 15.477C62.5289 15.6094 62.8902 15.834 63.1668 16.0661C63.5281 16.2907 63.8046 16.5228 64.0811 16.7548C64.2655 16.9095 64.5346 17.0567 64.7264 17.2962C64.9108 17.4509 65.1799 17.5982 65.3642 17.7529C65.6334 17.9002 65.8029 17.8853 66.0572 17.8631C66.3115 17.8409 66.4736 17.7412 66.713 17.5494C66.8677 17.3651 67.0224 17.1808 67.0849 16.9191C67.1474 16.6574 67.3022 16.473 67.3647 16.2112L70.1735 17.0759C69.257 19.2914 67.9898 20.4272 66.3792 20.5681C65.7859 20.62 65.2625 20.495 64.7317 20.2852C64.2008 20.0754 63.6626 19.7808 63.1169 19.4015Z" fill="black"/>
<path opacity="0.25" d="M78.1338 23.1271C77.5405 23.179 76.9323 23.0614 76.394 22.7668C75.8558 22.4723 75.3027 22.0082 74.827 21.4519C74.3512 20.8957 73.9529 20.2472 73.5471 19.514C73.1413 18.7808 72.8128 17.9554 72.5617 17.0378C72.3106 16.1203 72.0669 15.2875 71.8158 14.3699C71.6495 13.445 71.4832 12.52 71.409 11.6723L73.8375 11.1182C73.9487 12.3896 74.2221 13.5615 74.4954 14.7333C74.7688 15.9052 75.112 16.9001 75.4405 17.7255C75.7764 18.6357 76.1748 19.2841 76.6431 19.7556C77.0266 20.2345 77.4727 20.4517 77.8117 20.4221C78.1508 20.3924 78.4676 20.1085 78.7696 19.655C79.0641 19.1167 79.3512 18.4937 79.5388 17.7086L81.2944 20.2028C80.9522 21.1723 80.5029 21.8949 79.9467 22.3706C79.5525 22.7467 78.8967 23.0603 78.1338 23.1271ZM84.7051 16.2317C84.4286 15.9996 84.1521 15.7676 83.7908 15.543C83.4221 15.2336 83.0533 14.9242 82.5999 14.6222C82.1464 14.3202 81.6929 14.0182 81.1547 13.7237C80.6164 13.4291 80.1703 13.2119 79.6395 13.0021L81.0794 10.9117C81.5255 11.1289 81.9716 11.3461 82.4176 11.5633C82.8711 11.8653 83.4094 12.1599 83.8628 12.4618C84.3163 12.7638 84.7698 13.0657 85.1385 13.3751C85.5072 13.6845 85.8685 13.9091 86.1451 14.1412L84.7051 16.2317Z" fill="black"/>
</g>
<path d="M26.0437 18.5339L25.2576 16.382C26.0056 16.1457 26.831 15.8172 27.6712 15.6583C28.504 15.4146 29.429 15.2483 30.3466 14.9972C31.2716 14.8308 32.1965 14.6645 33.1215 14.4982C33.0071 14.1665 32.8927 13.8349 32.7857 13.588C32.6786 13.3412 32.5716 13.0943 32.472 12.9322L34.838 12.6398C34.9376 12.8019 35.0372 12.964 35.1516 13.2956C35.2586 13.5425 35.3731 13.8741 35.3953 14.1284C35.4801 14.121 35.6496 14.1062 35.7343 14.0987C36.4125 14.0394 37.0058 13.9875 37.6065 14.0204C38.1999 13.9685 38.6311 14.0162 39.0624 14.0639L39.0009 16.2899C38.1384 16.1946 37.1138 16.1988 35.7576 16.3175C35.7873 16.6565 35.8095 16.9108 35.8318 17.1651C35.8837 17.7584 35.8583 18.444 35.8254 19.0447C36.1094 19.3615 36.316 19.7705 36.5226 20.1795C36.7292 20.5885 36.7811 21.1818 36.8256 21.6904C36.8923 22.4532 36.7896 23.231 36.5946 23.9313C36.3149 24.6391 36.0277 25.2621 35.5636 25.8152C35.0996 26.3682 34.5359 26.7592 33.8874 27.1576L31.6497 25.9868C32.3903 25.6657 33.0387 25.2674 33.4329 24.8912C33.9044 24.4229 34.2138 24.0542 34.431 23.6081C34.6482 23.1621 34.7807 22.7234 34.8358 22.377C34.5338 22.8304 34.1322 23.1218 33.7306 23.4132C33.3291 23.7045 32.7431 23.8412 32.1498 23.8931C31.4717 23.9525 30.9483 23.8274 30.4175 23.6176C29.8866 23.4079 29.4332 23.1059 29.1344 22.6196C28.7582 22.2254 28.629 21.7242 28.5771 21.1308C28.5622 20.9613 28.54 20.707 28.6025 20.4453C28.665 20.1836 28.7201 19.8372 28.7826 19.5755C28.9225 19.2216 29.0698 18.9524 29.3866 18.6685C29.6186 18.392 30.0202 18.1006 30.4292 17.894C30.8382 17.6874 31.4241 17.5507 32.1022 17.4914C32.4413 17.4617 32.6955 17.4395 33.042 17.4946C33.3037 17.5571 33.6428 17.5274 33.9045 17.5899C33.8971 17.5052 33.8971 17.5052 33.8896 17.4204C33.86 17.0813 33.8303 16.7423 33.8007 16.4032C32.8757 16.5696 31.9507 16.7359 31.0257 16.9023C30.1007 17.0686 29.1832 17.3197 28.3504 17.5634C27.3703 18.0762 26.6222 18.3125 26.0437 18.5339ZM30.7957 21.1076C30.8254 21.4466 30.9324 21.6935 31.1941 21.756C31.4558 21.8185 31.6328 21.8885 31.8871 21.8662C32.3956 21.8217 32.8046 21.6151 33.0367 21.3386C33.3535 21.0546 33.4859 20.616 33.6184 20.1773C33.3493 20.0301 33.0801 19.8828 32.8258 19.905C32.5641 19.8425 32.3099 19.8648 32.0556 19.887C31.6317 19.9241 31.3849 20.0311 31.0681 20.3151C30.9134 20.4994 30.7661 20.7685 30.7957 21.1076Z" fill="black"/>
<path d="M54.8081 23.192C53.8281 23.7049 52.8406 24.1329 51.7609 24.4836C50.6812 24.8343 49.6715 25.008 48.6543 25.097C47.6371 25.186 46.6052 25.1055 45.7353 24.9253C44.8654 24.7452 44.1428 24.296 43.5823 23.7471C43.0218 23.1983 42.6933 22.3729 42.6044 21.3557L42.5895 21.1862L44.734 20.3153L44.7489 20.4848C44.8008 21.0781 45.0074 21.4871 45.2913 21.8039C45.5753 22.1207 46.0214 22.3379 46.5448 22.463C47.0682 22.588 47.5842 22.6283 48.1775 22.5764C48.8556 22.517 49.4416 22.3803 50.197 22.2288C50.8603 22 51.5236 21.7712 52.1869 21.5423C52.8501 21.3134 53.3365 21.0147 53.8228 20.7159L54.8081 23.192ZM52.4603 15.8812C51.9294 15.6714 51.406 15.5464 50.7979 15.4287C50.1897 15.3111 49.5041 15.2857 48.8186 15.2602C48.1331 15.2348 47.455 15.2941 46.7769 15.3535C46.1836 15.4054 45.675 15.4499 45.089 15.5865C44.5879 15.7158 44.0793 15.7603 43.5856 15.9743L43.1162 13.5384C43.7795 13.3096 44.4502 13.1655 45.0361 13.0288C45.7068 12.8847 46.3001 12.8328 46.8935 12.7809C47.9954 12.6845 49.1047 12.6728 50.1442 12.8381C51.1836 13.0034 52.0535 13.1836 52.8534 13.5407L52.4603 15.8812ZM52.9784 13.0172C52.8862 12.9399 52.7866 12.7778 52.5949 12.5383C52.4031 12.2989 52.3035 12.1368 52.1117 11.8973C52.0047 11.6504 51.9051 11.4883 51.8055 11.3262L52.7856 10.8134C52.8926 11.0603 52.9996 11.3072 53.1914 11.5466C53.3832 11.7861 53.5749 12.0255 53.7667 12.265L52.9784 13.0172ZM54.7362 12.6072C54.644 12.5299 54.4597 12.3752 54.3601 12.213C54.1757 12.0583 53.9914 11.9036 53.8843 11.6568C53.6926 11.4173 53.593 11.2552 53.5008 11.1779L54.2965 10.5104C54.3961 10.6725 54.5879 10.9119 54.8644 11.144C55.0562 11.3834 55.3327 11.6155 55.5171 11.7702L54.7362 12.6072Z" fill="black"/>
<path d="M63.8831 18.5544C63.6066 18.3223 63.33 18.0902 63.0535 17.8582C62.777 17.6262 62.5078 17.4789 62.3235 17.3242C62.0544 17.1769 61.8774 17.107 61.6231 17.1292C61.3688 17.1515 61.2067 17.2511 61.0594 17.5202C60.9047 17.7046 60.6801 18.0659 60.5403 18.4198C60.4004 18.7736 60.1758 19.1349 60.0433 19.5736L57.3192 18.7016C57.6689 17.8168 58.0408 17.1864 58.4201 16.6408C58.7995 16.0951 59.1014 15.6416 59.4183 15.3577C59.7351 15.0737 60.144 14.8671 60.4757 14.7527C60.8073 14.6383 61.2237 14.5164 61.5628 14.4868C62.0713 14.4423 62.5026 14.4899 62.8565 14.6298C63.2951 14.7622 63.6564 14.9869 63.933 15.2189C64.2943 15.4435 64.5708 15.6756 64.8473 15.9076C65.0317 16.0623 65.3008 16.2096 65.4926 16.4491C65.677 16.6038 65.9461 16.751 66.1304 16.9057C66.3995 17.053 66.5691 17.0382 66.8234 17.0159C67.0777 16.9937 67.2398 16.8941 67.4792 16.7023C67.6339 16.518 67.7886 16.3336 67.8511 16.0719C67.9136 15.8102 68.0683 15.6258 68.1309 15.3641L70.9397 16.2287C70.0232 18.4442 68.7559 19.5801 67.1454 19.721C66.5521 19.7729 66.0287 19.6478 65.4978 19.438C64.967 19.2282 64.4288 18.9337 63.8831 18.5544Z" fill="black"/>
<path d="M78.9847 22.2726C78.3914 22.3245 77.7832 22.2069 77.245 21.9124C76.7067 21.6178 76.1537 21.1537 75.6779 20.5974C75.2022 20.0412 74.8038 19.3928 74.398 18.6595C73.9922 17.9263 73.6638 17.101 73.4127 16.1834C73.1616 15.2658 72.9179 14.433 72.6668 13.5154C72.5004 12.5905 72.3341 11.6655 72.26 10.8178L74.6884 10.2637C74.7997 11.5352 75.073 12.707 75.3464 13.8789C75.6197 15.0508 75.963 16.0457 76.2914 16.871C76.6273 17.7812 77.0257 18.4296 77.494 18.9011C77.8775 19.3801 78.3236 19.5973 78.6626 19.5676C79.0017 19.538 79.3185 19.254 79.6205 18.8005C79.915 18.2622 80.2022 17.6393 80.3897 16.8542L82.1454 19.3483C81.8031 20.3178 81.3539 21.0404 80.7976 21.5161C80.3187 21.8997 79.7476 22.2059 78.9847 22.2726ZM85.4787 15.4694C85.2022 15.2373 84.9257 15.0053 84.5644 14.7807C84.1957 14.4713 83.8269 14.1619 83.3734 13.8599C82.92 13.5579 82.4665 13.256 81.9282 12.9614C81.39 12.6668 80.9439 12.4496 80.4131 12.2398L81.853 10.1494C82.2991 10.3666 82.7452 10.5838 83.1912 10.801C83.6447 11.103 84.183 11.3975 84.6364 11.6995C85.0899 12.0015 85.5434 12.3035 85.9121 12.6128C86.2808 12.9222 86.6421 13.1469 86.9187 13.3789L85.4787 15.4694Z" fill="black"/>
</g>
<defs>
<clipPath id="clip0_10_335">
<rect width="100" height="40" fill="white" transform="translate(0 0.03125)"/>
</clipPath>
</defs>
</svg>
