<svg width="87" height="26" viewBox="0 0 87 26" fill="none" xmlns="http://www.w3.org/2000/svg">
<path fill-rule="evenodd" clip-rule="evenodd" d="M72.0741 0.132812L78.6765 12.5908L72.0741 25.0313H77.1702L86.489 12.5841V12.58L77.1702 0.132812H72.0741Z" fill="black"/>
<path fill-rule="evenodd" clip-rule="evenodd" d="M0.0904207 21.1294L2.9485 20.448V5.2953L0 4.56932V1.12023L9.02765 0.0771155L9.66322 0.395553V2.80022H9.93579C12.25 1.16609 14.6547 0.03125 17.8758 0.03125C21.7324 0.03125 24.2275 1.71124 24.2275 6.06585V20.448L26.9493 21.1294V24.4409H14.8355V21.1294L17.1943 20.5397V8.42596C17.1943 6.06585 16.0608 5.33986 13.7466 5.33986C12.3405 5.33986 11.1611 5.70416 9.98034 6.11171V20.5397L12.3405 21.1294V24.4409H0.0904207V21.1294Z" fill="black"/>
<path fill-rule="evenodd" clip-rule="evenodd" d="M27.9925 21.1294L30.8505 20.448V5.29534L27.902 4.56935V1.12026L36.9297 0.0771484L37.5653 0.395586V3.7975H37.8378C39.1076 1.80169 41.1952 0.0771484 43.917 0.0771484C44.3258 0.0771484 44.8697 0.167569 45.1422 0.2593V6.42887C44.5971 6.2939 43.7807 6.24803 43.1451 6.24803C40.9226 6.24803 39.2898 6.61102 37.8824 7.33701V20.448L41.376 21.1294V24.4409H27.9925V21.1294Z" fill="black"/>
<path fill-rule="evenodd" clip-rule="evenodd" d="M45.8217 12.6448C45.8217 3.79796 51.2666 0.0317383 58.8881 0.0317383C61.6112 0.0317383 64.333 0.440597 65.8754 0.984431V8.01759H61.5195L60.7935 4.5685C60.2942 4.38766 59.7962 4.20681 58.4805 4.20681C55.2136 4.20681 53.2178 6.42933 53.2178 12.0551C53.2178 18.1801 56.03 20.1313 60.2942 20.1313C62.8352 20.1313 64.9686 19.5862 66.148 19.0882V22.8073C64.6501 23.8517 62.0646 25.0311 58.0717 25.0311C49.905 25.0311 45.8217 20.2676 45.8217 12.6448Z" fill="black"/>
</svg>
